solid OpenSCAD_Model
  facet normal -1 0 0
    outer loop
      vertex 0 0 0
      vertex 0 0 7
      vertex 0 66 0
    endloop
  endfacet
  facet normal -1 0 0
    outer loop
      vertex 0 66 0
      vertex 0 0 7
      vertex 0 66 7
    endloop
  endfacet
  facet normal 0 -1 0
    outer loop
      vertex 0 0 7
      vertex 0 0 0
      vertex 90.909 0 0
    endloop
  endfacet
  facet normal 0 -1 0
    outer loop
      vertex 90.909 0 7
      vertex 0 0 7
      vertex 90.909 0 0
    endloop
  endfacet
  facet normal 0 0 -1
    outer loop
      vertex 57.5 48 0
      vertex 90.909 0 0
      vertex 57.5 18 0
    endloop
  endfacet
  facet normal 0 0 -1
    outer loop
      vertex 57.5 48 0
      vertex 0 66 0
      vertex 90.909 66 0
    endloop
  endfacet
  facet normal 0 0 -1
    outer loop
      vertex 0 0 0
      vertex 0 66 0
      vertex 6.6045 48 0
    endloop
  endfacet
  facet normal 0 0 -1
    outer loop
      vertex 0 0 0
      vertex 6.6045 48 0
      vertex 6.6045 18 0
    endloop
  endfacet
  facet normal 0 0 -1
    outer loop
      vertex 0 0 0
      vertex 6.6045 18 0
      vertex 90.909 0 0
    endloop
  endfacet
  facet normal 0 0 -1
    outer loop
      vertex 6.6045 18 0
      vertex 57.5 18 0
      vertex 90.909 0 0
    endloop
  endfacet
  facet normal 0 0 -1
    outer loop
      vertex 90.909 0 0
      vertex 57.5 48 0
      vertex 90.909 66 0
    endloop
  endfacet
  facet normal 0 0 -1
    outer loop
      vertex 6.6045 48 0
      vertex 0 66 0
      vertex 57.5 48 0
    endloop
  endfacet
  facet normal 0 1 0
    outer loop
      vertex 0 66 0
      vertex 0 66 7
      vertex 90.909 66 0
    endloop
  endfacet
  facet normal 0 1 0
    outer loop
      vertex 90.909 66 0
      vertex 0 66 7
      vertex 90.909 66 7
    endloop
  endfacet
  facet normal 0 0 1
    outer loop
      vertex 6.6045 4 7
      vertex 0 0 7
      vertex 90.909 0 7
    endloop
  endfacet
  facet normal 0 0 1
    outer loop
      vertex 84.3045 60.5 7
      vertex 84.3045 5.5 7
      vertex 90.909 0 7
    endloop
  endfacet
  facet normal 0 0 1
    outer loop
      vertex 7.6045 4 7
      vertex 6.6045 4 7
      vertex 90.909 0 7
    endloop
  endfacet
  facet normal 0 0 1
    outer loop
      vertex 0 66 7
      vertex 0 0 7
      vertex 6.6045 4 7
    endloop
  endfacet
  facet normal 0 0 1
    outer loop
      vertex 90.909 66 7
      vertex 0 66 7
      vertex 6.6045 62 7
    endloop
  endfacet
  facet normal 0 0 1
    outer loop
      vertex 38.4045 61.6 7
      vertex 38.4045 60.5 7
      vertex 90.909 66 7
    endloop
  endfacet
  facet normal 0 0 1
    outer loop
      vertex 90.909 66 7
      vertex 6.6045 62 7
      vertex 7.6045 62 7
    endloop
  endfacet
  facet normal 0 0 1
    outer loop
      vertex 84.3045 5.5 7
      vertex 64.6045 5.5 7
      vertex 90.909 0 7
    endloop
  endfacet
  facet normal 0 0 1
    outer loop
      vertex 35.4045 61.6 7
      vertex 7.6045 62 7
      vertex 35.4045 60.5 7
    endloop
  endfacet
  facet normal 0 0 1
    outer loop
      vertex 90.909 66 7
      vertex 7.6045 62 7
      vertex 35.4045 61.6 7
    endloop
  endfacet
  facet normal 0 0 1
    outer loop
      vertex 90.909 66 7
      vertex 35.4045 61.6 7
      vertex 38.4045 61.6 7
    endloop
  endfacet
  facet normal 0 0 1
    outer loop
      vertex 90.909 66 7
      vertex 84.3045 60.5 7
      vertex 90.909 0 7
    endloop
  endfacet
  facet normal 0 0 1
    outer loop
      vertex 90.909 66 7
      vertex 38.4045 60.5 7
      vertex 84.3045 60.5 7
    endloop
  endfacet
  facet normal 0 0 1
    outer loop
      vertex 7.6045 60.5 7
      vertex 35.4045 60.5 7
      vertex 7.6045 62 7
    endloop
  endfacet
  facet normal 0 0 1
    outer loop
      vertex 7.6045 5.5 7
      vertex 25.4045 4.4 7
      vertex 25.4045 5.5 7
    endloop
  endfacet
  facet normal 0 0 1
    outer loop
      vertex 64.6045 5.5 7
      vertex 64.6045 4.4 7
      vertex 90.909 0 7
    endloop
  endfacet
  facet normal 0 0 1
    outer loop
      vertex 61.6045 4.4 7
      vertex 61.6045 5.5 7
      vertex 28.4045 4.4 7
    endloop
  endfacet
  facet normal 0 0 1
    outer loop
      vertex 61.6045 4.4 7
      vertex 7.6045 4 7
      vertex 64.6045 4.4 7
    endloop
  endfacet
  facet normal 0 0 1
    outer loop
      vertex 25.4045 4.4 7
      vertex 7.6045 4 7
      vertex 28.4045 4.4 7
    endloop
  endfacet
  facet normal 0 0 1
    outer loop
      vertex 28.4045 4.4 7
      vertex 7.6045 4 7
      vertex 61.6045 4.4 7
    endloop
  endfacet
  facet normal 0 0 1
    outer loop
      vertex 28.4045 5.5 7
      vertex 28.4045 4.4 7
      vertex 61.6045 5.5 7
    endloop
  endfacet
  facet normal 0 0 1
    outer loop
      vertex 7.6045 5.5 7
      vertex 7.6045 4 7
      vertex 25.4045 4.4 7
    endloop
  endfacet
  facet normal 0 0 1
    outer loop
      vertex 64.6045 4.4 7
      vertex 7.6045 4 7
      vertex 90.909 0 7
    endloop
  endfacet
  facet normal 0 0 1
    outer loop
      vertex 6.6045 4 7
      vertex 6.6045 62 7
      vertex 0 66 7
    endloop
  endfacet
  facet normal 1 0 0
    outer loop
      vertex 90.909 0 7
      vertex 90.909 0 0
      vertex 90.909 66 0
    endloop
  endfacet
  facet normal 1 0 0
    outer loop
      vertex 90.909 66 7
      vertex 90.909 0 7
      vertex 90.909 66 0
    endloop
  endfacet
  facet normal 1 0 0
    outer loop
      vertex 6.6045 48 0
      vertex 6.6045 48 2.5
      vertex 6.6045 18 2.5
    endloop
  endfacet
  facet normal 1 0 0
    outer loop
      vertex 6.6045 18 0
      vertex 6.6045 48 0
      vertex 6.6045 18 2.5
    endloop
  endfacet
  facet normal 0 -1 0
    outer loop
      vertex 57.5 48 0
      vertex 57.5 48 3.4
      vertex 32.5 48 3.4
    endloop
  endfacet
  facet normal 0 -1 0
    outer loop
      vertex 6.6045 48 2.5
      vertex 57.5 48 0
      vertex 32.5 48 2.5
    endloop
  endfacet
  facet normal 0 -1 0
    outer loop
      vertex 32.5 48 2.5
      vertex 57.5 48 0
      vertex 32.5 48 3.4
    endloop
  endfacet
  facet normal 0 -1 0
    outer loop
      vertex 6.6045 48 0
      vertex 57.5 48 0
      vertex 6.6045 48 2.5
    endloop
  endfacet
  facet normal -1 0 0
    outer loop
      vertex 57.5 48 3.4
      vertex 57.5 48 0
      vertex 57.5 18 3.4
    endloop
  endfacet
  facet normal -1 0 0
    outer loop
      vertex 57.5 18 3.4
      vertex 57.5 48 0
      vertex 57.5 18 0
    endloop
  endfacet
  facet normal 0 1 0
    outer loop
      vertex 32.5 18 2.5
      vertex 32.5 18 3.4
      vertex 57.5 18 3.4
    endloop
  endfacet
  facet normal 0 1 0
    outer loop
      vertex 32.5 18 2.5
      vertex 57.5 18 3.4
      vertex 57.5 18 0
    endloop
  endfacet
  facet normal 0 1 0
    outer loop
      vertex 32.5 18 2.5
      vertex 57.5 18 0
      vertex 6.6045 18 2.5
    endloop
  endfacet
  facet normal 0 1 0
    outer loop
      vertex 57.5 18 0
      vertex 6.6045 18 0
      vertex 6.6045 18 2.5
    endloop
  endfacet
  facet normal 1 0 0
    outer loop
      vertex 6.6045 62.5 3.4
      vertex 6.6045 62.5 5.2
      vertex 6.6045 62 5.2
    endloop
  endfacet
  facet normal 1 0 0
    outer loop
      vertex 6.6045 4 7
      vertex 6.6045 62.5 3.4
      vertex 6.6045 62 5.2
    endloop
  endfacet
  facet normal 1 0 0
    outer loop
      vertex 6.6045 62 7
      vertex 6.6045 4 7
      vertex 6.6045 62 5.2
    endloop
  endfacet
  facet normal 1 0 0
    outer loop
      vertex 6.6045 4 7
      vertex 6.6045 4 3.4
      vertex 6.6045 62.5 3.4
    endloop
  endfacet
  facet normal 0 1 0
    outer loop
      vertex 7.6045 4 7
      vertex 7.6045 4 5.2
      vertex 6.6045 4 7
    endloop
  endfacet
  facet normal 0 1 0
    outer loop
      vertex 8.6045 4 3.4
      vertex 7.6045 4 5.2
      vertex 8.6045 4 5.2
    endloop
  endfacet
  facet normal 0 1 0
    outer loop
      vertex 6.6045 4 3.4
      vertex 7.6045 4 5.2
      vertex 8.6045 4 3.4
    endloop
  endfacet
  facet normal 0 1 0
    outer loop
      vertex 6.6045 4 7
      vertex 7.6045 4 5.2
      vertex 6.6045 4 3.4
    endloop
  endfacet
  facet normal -1 0 0
    outer loop
      vertex 7.6045 5.5 7
      vertex 7.6045 5.5 5.2
      vertex 7.6045 4 7
    endloop
  endfacet
  facet normal -1 0 0
    outer loop
      vertex 7.6045 4 7
      vertex 7.6045 5.5 5.2
      vertex 7.6045 4 5.2
    endloop
  endfacet
  facet normal 0 1 0
    outer loop
      vertex 25.4045 5.5 7
      vertex 25.4045 5.5 3.4
      vertex 7.6045 5.5 7
    endloop
  endfacet
  facet normal 0 1 0
    outer loop
      vertex 8.6045 5.5 5.2
      vertex 25.4045 5.5 3.4
      vertex 8.6045 5.5 3.4
    endloop
  endfacet
  facet normal 0 1 0
    outer loop
      vertex 7.6045 5.5 7
      vertex 25.4045 5.5 3.4
      vertex 8.6045 5.5 5.2
    endloop
  endfacet
  facet normal 0 1 0
    outer loop
      vertex 7.6045 5.5 5.2
      vertex 7.6045 5.5 7
      vertex 8.6045 5.5 5.2
    endloop
  endfacet
  facet normal 1 0 0
    outer loop
      vertex 25.4045 5.5 3.4
      vertex 25.4045 5.5 7
      vertex 25.4045 4.4 7
    endloop
  endfacet
  facet normal 1 0 0
    outer loop
      vertex 25.4045 4.4 3.4
      vertex 25.4045 5.5 3.4
      vertex 25.4045 4.4 7
    endloop
  endfacet
  facet normal 0 1 0
    outer loop
      vertex 28.4045 4.4 7
      vertex 28.4045 4.4 3.4
      vertex 25.4045 4.4 7
    endloop
  endfacet
  facet normal 0 1 0
    outer loop
      vertex 25.4045 4.4 7
      vertex 28.4045 4.4 3.4
      vertex 25.4045 4.4 3.4
    endloop
  endfacet
  facet normal -1 0 0
    outer loop
      vertex 28.4045 5.5 7
      vertex 28.4045 5.5 3.4
      vertex 28.4045 4.4 7
    endloop
  endfacet
  facet normal -1 0 0
    outer loop
      vertex 28.4045 4.4 7
      vertex 28.4045 5.5 3.4
      vertex 28.4045 4.4 3.4
    endloop
  endfacet
  facet normal 0 1 0
    outer loop
      vertex 61.6045 5.5 7
      vertex 61.6045 5.5 3.4
      vertex 28.4045 5.5 7
    endloop
  endfacet
  facet normal 0 1 0
    outer loop
      vertex 28.4045 5.5 7
      vertex 61.6045 5.5 3.4
      vertex 28.4045 5.5 3.4
    endloop
  endfacet
  facet normal 1 0 0
    outer loop
      vertex 61.6045 5.5 3.4
      vertex 61.6045 5.5 7
      vertex 61.6045 4.4 7
    endloop
  endfacet
  facet normal 1 0 0
    outer loop
      vertex 61.6045 4.4 3.4
      vertex 61.6045 5.5 3.4
      vertex 61.6045 4.4 7
    endloop
  endfacet
  facet normal 0 1 0
    outer loop
      vertex 64.6045 4.4 7
      vertex 64.6045 4.4 3.4
      vertex 61.6045 4.4 7
    endloop
  endfacet
  facet normal 0 1 0
    outer loop
      vertex 61.6045 4.4 7
      vertex 64.6045 4.4 3.4
      vertex 61.6045 4.4 3.4
    endloop
  endfacet
  facet normal -1 0 0
    outer loop
      vertex 64.6045 5.5 7
      vertex 64.6045 5.5 3.4
      vertex 64.6045 4.4 7
    endloop
  endfacet
  facet normal -1 0 0
    outer loop
      vertex 64.6045 4.4 7
      vertex 64.6045 5.5 3.4
      vertex 64.6045 4.4 3.4
    endloop
  endfacet
  facet normal 0 1 0
    outer loop
      vertex 84.3045 5.5 7
      vertex 84.3045 5.5 6
      vertex 64.6045 5.5 7
    endloop
  endfacet
  facet normal 0 1 0
    outer loop
      vertex 85.8045 5.5 3.4
      vertex 84.3045 5.5 6
      vertex 85.8045 5.5 6
    endloop
  endfacet
  facet normal 0 1 0
    outer loop
      vertex 64.6045 5.5 7
      vertex 84.3045 5.5 6
      vertex 85.8045 5.5 3.4
    endloop
  endfacet
  facet normal 0 1 0
    outer loop
      vertex 64.6045 5.5 7
      vertex 85.8045 5.5 3.4
      vertex 64.6045 5.5 3.4
    endloop
  endfacet
  facet normal -1 0 0
    outer loop
      vertex 84.3045 60.5 7
      vertex 84.3045 60.5 6
      vertex 84.3045 5.5 7
    endloop
  endfacet
  facet normal -1 0 0
    outer loop
      vertex 84.3045 5.5 7
      vertex 84.3045 60.5 6
      vertex 84.3045 57.5 6
    endloop
  endfacet
  facet normal -1 0 0
    outer loop
      vertex 84.3045 5.5 7
      vertex 84.3045 57.5 6
      vertex 84.3045 57.5 3.4
    endloop
  endfacet
  facet normal -1 0 0
    outer loop
      vertex 84.3045 8.5 6
      vertex 84.3045 57.5 3.4
      vertex 84.3045 8.5 3.4
    endloop
  endfacet
  facet normal -1 0 0
    outer loop
      vertex 84.3045 5.5 7
      vertex 84.3045 57.5 3.4
      vertex 84.3045 8.5 6
    endloop
  endfacet
  facet normal -1 0 0
    outer loop
      vertex 84.3045 5.5 6
      vertex 84.3045 5.5 7
      vertex 84.3045 8.5 6
    endloop
  endfacet
  facet normal 0 -1 0
    outer loop
      vertex 85.8045 60.5 3.4
      vertex 85.8045 60.5 6
      vertex 84.3045 60.5 6
    endloop
  endfacet
  facet normal 0 -1 0
    outer loop
      vertex 38.4045 60.5 7
      vertex 85.8045 60.5 3.4
      vertex 84.3045 60.5 6
    endloop
  endfacet
  facet normal 0 -1 0
    outer loop
      vertex 84.3045 60.5 7
      vertex 38.4045 60.5 7
      vertex 84.3045 60.5 6
    endloop
  endfacet
  facet normal 0 -1 0
    outer loop
      vertex 38.4045 60.5 7
      vertex 38.4045 60.5 3.4
      vertex 85.8045 60.5 3.4
    endloop
  endfacet
  facet normal -1 0 0
    outer loop
      vertex 38.4045 61.6 7
      vertex 38.4045 61.6 3.4
      vertex 38.4045 60.5 7
    endloop
  endfacet
  facet normal -1 0 0
    outer loop
      vertex 38.4045 60.5 7
      vertex 38.4045 61.6 3.4
      vertex 38.4045 60.5 3.4
    endloop
  endfacet
  facet normal 0 -1 0
    outer loop
      vertex 38.4045 61.6 3.4
      vertex 38.4045 61.6 7
      vertex 35.4045 61.6 7
    endloop
  endfacet
  facet normal 0 -1 0
    outer loop
      vertex 35.4045 61.6 3.4
      vertex 38.4045 61.6 3.4
      vertex 35.4045 61.6 7
    endloop
  endfacet
  facet normal 1 0 0
    outer loop
      vertex 35.4045 61.6 3.4
      vertex 35.4045 61.6 7
      vertex 35.4045 60.5 7
    endloop
  endfacet
  facet normal 1 0 0
    outer loop
      vertex 35.4045 60.5 3.4
      vertex 35.4045 61.6 3.4
      vertex 35.4045 60.5 7
    endloop
  endfacet
  facet normal 0 -1 0
    outer loop
      vertex 8.6045 60.5 5.2
      vertex 8.6045 60.5 3.4
      vertex 35.4045 60.5 3.4
    endloop
  endfacet
  facet normal 0 -1 0
    outer loop
      vertex 7.6045 60.5 7
      vertex 8.6045 60.5 5.2
      vertex 35.4045 60.5 7
    endloop
  endfacet
  facet normal 0 -1 0
    outer loop
      vertex 35.4045 60.5 7
      vertex 8.6045 60.5 5.2
      vertex 35.4045 60.5 3.4
    endloop
  endfacet
  facet normal 0 -1 0
    outer loop
      vertex 7.6045 60.5 5.2
      vertex 8.6045 60.5 5.2
      vertex 7.6045 60.5 7
    endloop
  endfacet
  facet normal -1 0 0
    outer loop
      vertex 7.6045 62 7
      vertex 7.6045 62 5.2
      vertex 7.6045 60.5 7
    endloop
  endfacet
  facet normal -1 0 0
    outer loop
      vertex 7.6045 60.5 7
      vertex 7.6045 62 5.2
      vertex 7.6045 60.5 5.2
    endloop
  endfacet
  facet normal 0 -1 0
    outer loop
      vertex 7.6045 62 5.2
      vertex 7.6045 62 7
      vertex 6.6045 62 7
    endloop
  endfacet
  facet normal 0 -1 0
    outer loop
      vertex 6.6045 62 5.2
      vertex 7.6045 62 5.2
      vertex 6.6045 62 7
    endloop
  endfacet
  facet normal 0 0 -1
    outer loop
      vertex 32.5 48 2.5
      vertex 32.5 18 2.5
      vertex 6.6045 48 2.5
    endloop
  endfacet
  facet normal 0 0 -1
    outer loop
      vertex 6.6045 48 2.5
      vertex 32.5 18 2.5
      vertex 6.6045 18 2.5
    endloop
  endfacet
  facet normal 1 0 0
    outer loop
      vertex 32.5 48 2.5
      vertex 32.5 48 3.4
      vertex 32.5 18 3.4
    endloop
  endfacet
  facet normal 1 0 0
    outer loop
      vertex 32.5 18 2.5
      vertex 32.5 48 2.5
      vertex 32.5 18 3.4
    endloop
  endfacet
  facet normal 0 0 1
    outer loop
      vertex 85.8045 8.5 3.4
      vertex 8.6045 5.5 3.4
      vertex 25.4045 5.5 3.4
    endloop
  endfacet
  facet normal 0 0 1
    outer loop
      vertex 28.4045 5.5 3.4
      vertex 85.8045 8.5 3.4
      vertex 25.4045 5.5 3.4
    endloop
  endfacet
  facet normal 0 0 1
    outer loop
      vertex 25.4045 4.4 3.4
      vertex 28.4045 4.4 3.4
      vertex 25.4045 5.5 3.4
    endloop
  endfacet
  facet normal 0 0 1
    outer loop
      vertex 8.6045 4 3.4
      vertex 8.6045 5.5 3.4
      vertex 6.6045 62.5 3.4
    endloop
  endfacet
  facet normal 0 0 1
    outer loop
      vertex 28.4045 4.4 3.4
      vertex 28.4045 5.5 3.4
      vertex 25.4045 5.5 3.4
    endloop
  endfacet
  facet normal 0 0 1
    outer loop
      vertex 61.6045 5.5 3.4
      vertex 85.8045 8.5 3.4
      vertex 28.4045 5.5 3.4
    endloop
  endfacet
  facet normal 0 0 1
    outer loop
      vertex 64.6045 5.5 3.4
      vertex 85.8045 8.5 3.4
      vertex 61.6045 5.5 3.4
    endloop
  endfacet
  facet normal 0 0 1
    outer loop
      vertex 61.6045 4.4 3.4
      vertex 64.6045 4.4 3.4
      vertex 61.6045 5.5 3.4
    endloop
  endfacet
  facet normal 0 0 1
    outer loop
      vertex 64.6045 4.4 3.4
      vertex 64.6045 5.5 3.4
      vertex 61.6045 5.5 3.4
    endloop
  endfacet
  facet normal 0 0 1
    outer loop
      vertex 85.8045 5.5 3.4
      vertex 85.8045 8.5 3.4
      vertex 64.6045 5.5 3.4
    endloop
  endfacet
  facet normal 0 0 1
    outer loop
      vertex 85.8045 8.5 3.4
      vertex 84.3045 8.5 3.4
      vertex 8.6045 5.5 3.4
    endloop
  endfacet
  facet normal 0 0 1
    outer loop
      vertex 38.4045 60.5 3.4
      vertex 38.4045 61.6 3.4
      vertex 8.6045 5.5 3.4
    endloop
  endfacet
  facet normal 0 0 1
    outer loop
      vertex 85.8045 57.5 3.4
      vertex 85.8045 60.5 3.4
      vertex 84.3045 57.5 3.4
    endloop
  endfacet
  facet normal 0 0 1
    outer loop
      vertex 32.5 48 3.4
      vertex 38.4045 60.5 3.4
      vertex 8.6045 5.5 3.4
    endloop
  endfacet
  facet normal 0 0 1
    outer loop
      vertex 8.6045 60.5 3.4
      vertex 6.6045 62.5 3.4
      vertex 8.6045 5.5 3.4
    endloop
  endfacet
  facet normal 0 0 1
    outer loop
      vertex 38.4045 61.6 3.4
      vertex 35.4045 60.5 3.4
      vertex 8.6045 5.5 3.4
    endloop
  endfacet
  facet normal 0 0 1
    outer loop
      vertex 38.4045 61.6 3.4
      vertex 35.4045 61.6 3.4
      vertex 35.4045 60.5 3.4
    endloop
  endfacet
  facet normal 0 0 1
    outer loop
      vertex 57.5 48 3.4
      vertex 84.3045 57.5 3.4
      vertex 85.8045 60.5 3.4
    endloop
  endfacet
  facet normal 0 0 1
    outer loop
      vertex 8.6045 62.5 3.4
      vertex 6.6045 62.5 3.4
      vertex 8.6045 60.5 3.4
    endloop
  endfacet
  facet normal 0 0 1
    outer loop
      vertex 6.6045 62.5 3.4
      vertex 6.6045 4 3.4
      vertex 8.6045 4 3.4
    endloop
  endfacet
  facet normal 0 0 1
    outer loop
      vertex 85.8045 60.5 3.4
      vertex 38.4045 60.5 3.4
      vertex 32.5 48 3.4
    endloop
  endfacet
  facet normal 0 0 1
    outer loop
      vertex 57.5 48 3.4
      vertex 57.5 18 3.4
      vertex 84.3045 57.5 3.4
    endloop
  endfacet
  facet normal 0 0 1
    outer loop
      vertex 85.8045 60.5 3.4
      vertex 32.5 48 3.4
      vertex 57.5 48 3.4
    endloop
  endfacet
  facet normal 0 0 1
    outer loop
      vertex 84.3045 8.5 3.4
      vertex 57.5 18 3.4
      vertex 8.6045 5.5 3.4
    endloop
  endfacet
  facet normal 0 0 1
    outer loop
      vertex 84.3045 8.5 3.4
      vertex 84.3045 57.5 3.4
      vertex 57.5 18 3.4
    endloop
  endfacet
  facet normal 0 0 1
    outer loop
      vertex 57.5 18 3.4
      vertex 32.5 18 3.4
      vertex 8.6045 5.5 3.4
    endloop
  endfacet
  facet normal 0 0 1
    outer loop
      vertex 35.4045 60.5 3.4
      vertex 8.6045 60.5 3.4
      vertex 8.6045 5.5 3.4
    endloop
  endfacet
  facet normal 0 0 1
    outer loop
      vertex 32.5 18 3.4
      vertex 32.5 48 3.4
      vertex 8.6045 5.5 3.4
    endloop
  endfacet
  facet normal 0 -1 0
    outer loop
      vertex 8.6045 62.5 3.4
      vertex 8.6045 62.5 5.2
      vertex 6.6045 62.5 5.2
    endloop
  endfacet
  facet normal 0 -1 0
    outer loop
      vertex 6.6045 62.5 3.4
      vertex 8.6045 62.5 3.4
      vertex 6.6045 62.5 5.2
    endloop
  endfacet
  facet normal 0 0 -1
    outer loop
      vertex 6.6045 62 5.2
      vertex 6.6045 62.5 5.2
      vertex 7.6045 62 5.2
    endloop
  endfacet
  facet normal 0 0 -1
    outer loop
      vertex 8.6045 62.5 5.2
      vertex 8.6045 60.5 5.2
      vertex 7.6045 62 5.2
    endloop
  endfacet
  facet normal 0 0 -1
    outer loop
      vertex 8.6045 62.5 5.2
      vertex 7.6045 62 5.2
      vertex 6.6045 62.5 5.2
    endloop
  endfacet
  facet normal 0 0 -1
    outer loop
      vertex 7.6045 62 5.2
      vertex 8.6045 60.5 5.2
      vertex 7.6045 60.5 5.2
    endloop
  endfacet
  facet normal -1 0 0
    outer loop
      vertex 8.6045 5.5 5.2
      vertex 8.6045 5.5 3.4
      vertex 8.6045 4 5.2
    endloop
  endfacet
  facet normal -1 0 0
    outer loop
      vertex 8.6045 4 5.2
      vertex 8.6045 5.5 3.4
      vertex 8.6045 4 3.4
    endloop
  endfacet
  facet normal 0 0 -1
    outer loop
      vertex 8.6045 5.5 5.2
      vertex 8.6045 4 5.2
      vertex 7.6045 5.5 5.2
    endloop
  endfacet
  facet normal 0 0 -1
    outer loop
      vertex 7.6045 5.5 5.2
      vertex 8.6045 4 5.2
      vertex 7.6045 4 5.2
    endloop
  endfacet
  facet normal -1 0 0
    outer loop
      vertex 85.8045 8.5 6
      vertex 85.8045 8.5 3.4
      vertex 85.8045 5.5 6
    endloop
  endfacet
  facet normal -1 0 0
    outer loop
      vertex 85.8045 5.5 6
      vertex 85.8045 8.5 3.4
      vertex 85.8045 5.5 3.4
    endloop
  endfacet
  facet normal 0 0 -1
    outer loop
      vertex 85.8045 8.5 6
      vertex 85.8045 5.5 6
      vertex 84.3045 8.5 6
    endloop
  endfacet
  facet normal 0 0 -1
    outer loop
      vertex 84.3045 8.5 6
      vertex 85.8045 5.5 6
      vertex 84.3045 5.5 6
    endloop
  endfacet
  facet normal 0 -1 0
    outer loop
      vertex 85.8045 8.5 3.4
      vertex 85.8045 8.5 6
      vertex 84.3045 8.5 6
    endloop
  endfacet
  facet normal 0 -1 0
    outer loop
      vertex 84.3045 8.5 3.4
      vertex 85.8045 8.5 3.4
      vertex 84.3045 8.5 6
    endloop
  endfacet
  facet normal 0 1 0
    outer loop
      vertex 85.8045 57.5 6
      vertex 85.8045 57.5 3.4
      vertex 84.3045 57.5 6
    endloop
  endfacet
  facet normal 0 1 0
    outer loop
      vertex 84.3045 57.5 6
      vertex 85.8045 57.5 3.4
      vertex 84.3045 57.5 3.4
    endloop
  endfacet
  facet normal 0 0 -1
    outer loop
      vertex 85.8045 60.5 6
      vertex 85.8045 57.5 6
      vertex 84.3045 60.5 6
    endloop
  endfacet
  facet normal 0 0 -1
    outer loop
      vertex 84.3045 60.5 6
      vertex 85.8045 57.5 6
      vertex 84.3045 57.5 6
    endloop
  endfacet
  facet normal -1 0 0
    outer loop
      vertex 85.8045 60.5 6
      vertex 85.8045 60.5 3.4
      vertex 85.8045 57.5 6
    endloop
  endfacet
  facet normal -1 0 0
    outer loop
      vertex 85.8045 57.5 6
      vertex 85.8045 60.5 3.4
      vertex 85.8045 57.5 3.4
    endloop
  endfacet
  facet normal -1 0 0
    outer loop
      vertex 8.6045 62.5 5.2
      vertex 8.6045 62.5 3.4
      vertex 8.6045 60.5 5.2
    endloop
  endfacet
  facet normal -1 0 0
    outer loop
      vertex 8.6045 60.5 5.2
      vertex 8.6045 62.5 3.4
      vertex 8.6045 60.5 3.4
    endloop
  endfacet
endsolid OpenSCAD_Model
