solid OpenSCAD_Model
  facet normal -1 0 0
    outer loop
      vertex 0 0 0
      vertex 0 0 4
      vertex 0 23.925 0
    endloop
  endfacet
  facet normal -1 0 0
    outer loop
      vertex 0 23.925 0
      vertex 0 0 4
      vertex 0 23.925 4
    endloop
  endfacet
  facet normal 0 -1 0
    outer loop
      vertex 0 0 4
      vertex 0 0 0
      vertex 90.909 0 0
    endloop
  endfacet
  facet normal 0 -1 0
    outer loop
      vertex 90.909 0 4
      vertex 0 0 4
      vertex 90.909 0 0
    endloop
  endfacet
  facet normal 0 0 -1
    outer loop
      vertex 59.2177 26.0186 0
      vertex 90.909 0 0
      vertex 46.6045 18.45 0
    endloop
  endfacet
  facet normal 0 0 -1
    outer loop
      vertex 57.8188 27.5721 0
      vertex 59.2177 26.0186 0
      vertex 46.6045 18.45 0
    endloop
  endfacet
  facet normal 0 0 -1
    outer loop
      vertex 46.6045 48.45 0
      vertex 56.7735 29.3826 0
      vertex 46.6045 18.45 0
    endloop
  endfacet
  facet normal 0 0 -1
    outer loop
      vertex 3.175 42.975 0
      vertex 0 42.975 0
      vertex 0 66.9 0
    endloop
  endfacet
  facet normal 0 0 -1
    outer loop
      vertex 6.6045 18.45 0
      vertex 0 23.925 0
      vertex 3.175 23.925 0
    endloop
  endfacet
  facet normal 0 0 -1
    outer loop
      vertex 90.909 42.975 0
      vertex 0 66.9 0
      vertex 90.909 66.9 0
    endloop
  endfacet
  facet normal 0 0 -1
    outer loop
      vertex 87.734 42.975 0
      vertex 0 66.9 0
      vertex 90.909 42.975 0
    endloop
  endfacet
  facet normal 0 0 -1
    outer loop
      vertex 46.6045 48.45 0
      vertex 0 66.9 0
      vertex 87.734 42.975 0
    endloop
  endfacet
  facet normal 0 0 -1
    outer loop
      vertex 46.6045 48.45 0
      vertex 59.2177 40.8814 0
      vertex 57.8188 39.3279 0
    endloop
  endfacet
  facet normal 0 0 -1
    outer loop
      vertex 6.6045 48.45 0
      vertex 0 66.9 0
      vertex 46.6045 48.45 0
    endloop
  endfacet
  facet normal 0 0 -1
    outer loop
      vertex 3.175 42.975 0
      vertex 0 66.9 0
      vertex 6.6045 48.45 0
    endloop
  endfacet
  facet normal 0 0 -1
    outer loop
      vertex 0 0 0
      vertex 0 23.925 0
      vertex 6.6045 18.45 0
    endloop
  endfacet
  facet normal 0 0 -1
    outer loop
      vertex 0 0 0
      vertex 6.6045 18.45 0
      vertex 90.909 0 0
    endloop
  endfacet
  facet normal 0 0 -1
    outer loop
      vertex 56.7735 29.3826 0
      vertex 57.8188 27.5721 0
      vertex 46.6045 18.45 0
    endloop
  endfacet
  facet normal 0 0 -1
    outer loop
      vertex 68.9992 42.9606 0
      vertex 46.6045 48.45 0
      vertex 87.734 42.975 0
    endloop
  endfacet
  facet normal 0 0 -1
    outer loop
      vertex 46.6045 18.45 0
      vertex 90.909 0 0
      vertex 6.6045 18.45 0
    endloop
  endfacet
  facet normal 0 0 -1
    outer loop
      vertex 6.6045 18.45 0
      vertex 3.175 42.975 0
      vertex 6.6045 48.45 0
    endloop
  endfacet
  facet normal 0 0 -1
    outer loop
      vertex 6.6045 18.45 0
      vertex 3.175 23.925 0
      vertex 3.175 42.975 0
    endloop
  endfacet
  facet normal 0 0 -1
    outer loop
      vertex 90.909 0 0
      vertex 59.2177 26.0186 0
      vertex 60.909 24.7897 0
    endloop
  endfacet
  facet normal 0 0 -1
    outer loop
      vertex 64.8637 23.5048 0
      vertex 90.909 0 0
      vertex 62.8188 23.9394 0
    endloop
  endfacet
  facet normal 0 0 -1
    outer loop
      vertex 66.9543 23.5048 0
      vertex 90.909 0 0
      vertex 64.8637 23.5048 0
    endloop
  endfacet
  facet normal 0 0 -1
    outer loop
      vertex 75.0445 29.3826 0
      vertex 87.734 23.925 0
      vertex 73.9992 27.5721 0
    endloop
  endfacet
  facet normal 0 0 -1
    outer loop
      vertex 90.909 0 0
      vertex 66.9543 23.5048 0
      vertex 87.734 23.925 0
    endloop
  endfacet
  facet normal 0 0 -1
    outer loop
      vertex 66.9543 23.5048 0
      vertex 68.9992 23.9394 0
      vertex 87.734 23.925 0
    endloop
  endfacet
  facet normal 0 0 -1
    outer loop
      vertex 68.9992 23.9394 0
      vertex 70.909 24.7897 0
      vertex 87.734 23.925 0
    endloop
  endfacet
  facet normal 0 0 -1
    outer loop
      vertex 70.909 24.7897 0
      vertex 72.6003 26.0186 0
      vertex 87.734 23.925 0
    endloop
  endfacet
  facet normal 0 0 -1
    outer loop
      vertex 72.6003 26.0186 0
      vertex 73.9992 27.5721 0
      vertex 87.734 23.925 0
    endloop
  endfacet
  facet normal 0 0 -1
    outer loop
      vertex 75.6905 31.3709 0
      vertex 87.734 23.925 0
      vertex 75.0445 29.3826 0
    endloop
  endfacet
  facet normal 0 0 -1
    outer loop
      vertex 64.8637 43.3952 0
      vertex 46.6045 48.45 0
      vertex 66.9543 43.3952 0
    endloop
  endfacet
  facet normal 0 0 -1
    outer loop
      vertex 87.734 23.925 0
      vertex 75.6905 31.3709 0
      vertex 87.734 42.975 0
    endloop
  endfacet
  facet normal 0 0 -1
    outer loop
      vertex 75.6905 31.3709 0
      vertex 75.909 33.45 0
      vertex 87.734 42.975 0
    endloop
  endfacet
  facet normal 0 0 -1
    outer loop
      vertex 75.909 33.45 0
      vertex 75.6905 35.5291 0
      vertex 87.734 42.975 0
    endloop
  endfacet
  facet normal 0 0 -1
    outer loop
      vertex 59.2177 40.8814 0
      vertex 46.6045 48.45 0
      vertex 60.909 42.1103 0
    endloop
  endfacet
  facet normal 0 0 -1
    outer loop
      vertex 75.6905 35.5291 0
      vertex 75.0445 37.5174 0
      vertex 87.734 42.975 0
    endloop
  endfacet
  facet normal 0 0 -1
    outer loop
      vertex 60.909 42.1103 0
      vertex 46.6045 48.45 0
      vertex 62.8188 42.9606 0
    endloop
  endfacet
  facet normal 0 0 -1
    outer loop
      vertex 75.0445 37.5174 0
      vertex 73.9992 39.3279 0
      vertex 87.734 42.975 0
    endloop
  endfacet
  facet normal 0 0 -1
    outer loop
      vertex 73.9992 39.3279 0
      vertex 72.6003 40.8814 0
      vertex 87.734 42.975 0
    endloop
  endfacet
  facet normal 0 0 -1
    outer loop
      vertex 62.8188 42.9606 0
      vertex 46.6045 48.45 0
      vertex 64.8637 43.3952 0
    endloop
  endfacet
  facet normal 0 0 -1
    outer loop
      vertex 72.6003 40.8814 0
      vertex 70.909 42.1103 0
      vertex 87.734 42.975 0
    endloop
  endfacet
  facet normal 0 0 -1
    outer loop
      vertex 66.9543 43.3952 0
      vertex 46.6045 48.45 0
      vertex 68.9992 42.9606 0
    endloop
  endfacet
  facet normal 0 0 -1
    outer loop
      vertex 70.909 42.1103 0
      vertex 68.9992 42.9606 0
      vertex 87.734 42.975 0
    endloop
  endfacet
  facet normal 0 0 -1
    outer loop
      vertex 90.909 23.925 0
      vertex 90.909 0 0
      vertex 87.734 23.925 0
    endloop
  endfacet
  facet normal 0 0 -1
    outer loop
      vertex 46.6045 48.45 0
      vertex 57.8188 39.3279 0
      vertex 56.7735 37.5174 0
    endloop
  endfacet
  facet normal 0 0 -1
    outer loop
      vertex 46.6045 48.45 0
      vertex 56.7735 37.5174 0
      vertex 56.1275 35.5291 0
    endloop
  endfacet
  facet normal 0 0 -1
    outer loop
      vertex 46.6045 48.45 0
      vertex 56.1275 35.5291 0
      vertex 55.909 33.45 0
    endloop
  endfacet
  facet normal 0 0 -1
    outer loop
      vertex 46.6045 48.45 0
      vertex 55.909 33.45 0
      vertex 56.1275 31.3709 0
    endloop
  endfacet
  facet normal 0 0 -1
    outer loop
      vertex 46.6045 48.45 0
      vertex 56.1275 31.3709 0
      vertex 56.7735 29.3826 0
    endloop
  endfacet
  facet normal 0 0 -1
    outer loop
      vertex 62.8188 23.9394 0
      vertex 90.909 0 0
      vertex 60.909 24.7897 0
    endloop
  endfacet
  facet normal 0 1 0
    outer loop
      vertex 3.175 23.925 4
      vertex 3.175 23.925 0
      vertex 0 23.925 4
    endloop
  endfacet
  facet normal 0 1 0
    outer loop
      vertex 0 23.925 4
      vertex 3.175 23.925 0
      vertex 0 23.925 0
    endloop
  endfacet
  facet normal 0 0 1
    outer loop
      vertex 10.1045 4.075 4
      vertex 0 0 4
      vertex 90.909 0 4
    endloop
  endfacet
  facet normal 0 0 1
    outer loop
      vertex 90.909 23.925 4
      vertex 87.734 23.925 4
      vertex 90.909 0 4
    endloop
  endfacet
  facet normal 0 0 1
    outer loop
      vertex 90.909 42.975 4
      vertex 90.909 66.9 4
      vertex 87.734 42.975 4
    endloop
  endfacet
  facet normal 0 0 1
    outer loop
      vertex 6.6045 61.325 4
      vertex 0 66.9 4
      vertex 0 42.975 4
    endloop
  endfacet
  facet normal 0 0 1
    outer loop
      vertex 61.6045 4.475 4
      vertex 61.6045 5.575 4
      vertex 30.1045 5.575 4
    endloop
  endfacet
  facet normal 0 0 1
    outer loop
      vertex 38.9045 61.325 4
      vertex 85.8045 61.325 4
      vertex 90.909 66.9 4
    endloop
  endfacet
  facet normal 0 0 1
    outer loop
      vertex 8.6045 4.075 4
      vertex 8.6045 5.575 4
      vertex 6.6045 5.575 4
    endloop
  endfacet
  facet normal 0 0 1
    outer loop
      vertex 0 23.925 4
      vertex 0 0 4
      vertex 6.6045 5.575 4
    endloop
  endfacet
  facet normal 0 0 1
    outer loop
      vertex 38.9045 62.825 4
      vertex 38.9045 61.325 4
      vertex 90.909 66.9 4
    endloop
  endfacet
  facet normal 0 0 1
    outer loop
      vertex 8.6045 62.825 4
      vertex 0 66.9 4
      vertex 6.6045 61.325 4
    endloop
  endfacet
  facet normal 0 0 1
    outer loop
      vertex 84.3045 57.825 4
      vertex 84.3045 9.075 4
      vertex 87.734 23.925 4
    endloop
  endfacet
  facet normal 0 0 1
    outer loop
      vertex 90.909 66.9 4
      vertex 0 66.9 4
      vertex 8.6045 62.825 4
    endloop
  endfacet
  facet normal 0 0 1
    outer loop
      vertex 10.1045 62.825 4
      vertex 10.1045 61.325 4
      vertex 90.909 66.9 4
    endloop
  endfacet
  facet normal 0 0 1
    outer loop
      vertex 90.909 66.9 4
      vertex 8.6045 62.825 4
      vertex 10.1045 62.825 4
    endloop
  endfacet
  facet normal 0 0 1
    outer loop
      vertex 8.6045 61.325 4
      vertex 8.6045 62.825 4
      vertex 6.6045 61.325 4
    endloop
  endfacet
  facet normal 0 0 1
    outer loop
      vertex 26.6045 4.475 4
      vertex 26.6045 5.575 4
      vertex 10.1045 5.575 4
    endloop
  endfacet
  facet normal 0 0 1
    outer loop
      vertex 35.4045 62.825 4
      vertex 10.1045 61.325 4
      vertex 35.4045 61.325 4
    endloop
  endfacet
  facet normal 0 0 1
    outer loop
      vertex 90.909 66.9 4
      vertex 10.1045 61.325 4
      vertex 35.4045 62.825 4
    endloop
  endfacet
  facet normal 0 0 1
    outer loop
      vertex 84.3045 57.825 4
      vertex 87.734 23.925 4
      vertex 87.734 42.975 4
    endloop
  endfacet
  facet normal 0 0 1
    outer loop
      vertex 90.909 66.9 4
      vertex 35.4045 62.825 4
      vertex 38.9045 62.825 4
    endloop
  endfacet
  facet normal 0 0 1
    outer loop
      vertex 87.734 42.975 4
      vertex 90.909 66.9 4
      vertex 85.8045 61.325 4
    endloop
  endfacet
  facet normal 0 0 1
    outer loop
      vertex 87.734 42.975 4
      vertex 85.8045 61.325 4
      vertex 85.8045 57.825 4
    endloop
  endfacet
  facet normal 0 0 1
    outer loop
      vertex 85.8045 5.575 4
      vertex 65.1045 5.575 4
      vertex 90.909 0 4
    endloop
  endfacet
  facet normal 0 0 1
    outer loop
      vertex 87.734 23.925 4
      vertex 85.8045 9.075 4
      vertex 90.909 0 4
    endloop
  endfacet
  facet normal 0 0 1
    outer loop
      vertex 87.734 23.925 4
      vertex 84.3045 9.075 4
      vertex 85.8045 9.075 4
    endloop
  endfacet
  facet normal 0 0 1
    outer loop
      vertex 65.1045 5.575 4
      vertex 65.1045 4.475 4
      vertex 90.909 0 4
    endloop
  endfacet
  facet normal 0 0 1
    outer loop
      vertex 30.1045 5.575 4
      vertex 30.1045 4.475 4
      vertex 61.6045 4.475 4
    endloop
  endfacet
  facet normal 0 0 1
    outer loop
      vertex 65.1045 4.475 4
      vertex 61.6045 4.475 4
      vertex 90.909 0 4
    endloop
  endfacet
  facet normal 0 0 1
    outer loop
      vertex 10.1045 5.575 4
      vertex 90.909 0 4
      vertex 26.6045 4.475 4
    endloop
  endfacet
  facet normal 0 0 1
    outer loop
      vertex 61.6045 4.475 4
      vertex 30.1045 4.475 4
      vertex 90.909 0 4
    endloop
  endfacet
  facet normal 0 0 1
    outer loop
      vertex 30.1045 4.475 4
      vertex 26.6045 4.475 4
      vertex 90.909 0 4
    endloop
  endfacet
  facet normal 0 0 1
    outer loop
      vertex 10.1045 5.575 4
      vertex 10.1045 4.075 4
      vertex 90.909 0 4
    endloop
  endfacet
  facet normal 0 0 1
    outer loop
      vertex 8.6045 4.075 4
      vertex 0 0 4
      vertex 10.1045 4.075 4
    endloop
  endfacet
  facet normal 0 0 1
    outer loop
      vertex 6.6045 5.575 4
      vertex 0 0 4
      vertex 8.6045 4.075 4
    endloop
  endfacet
  facet normal 0 0 1
    outer loop
      vertex 84.3045 57.825 4
      vertex 87.734 42.975 4
      vertex 85.8045 57.825 4
    endloop
  endfacet
  facet normal 0 0 1
    outer loop
      vertex 85.8045 9.075 4
      vertex 85.8045 5.575 4
      vertex 90.909 0 4
    endloop
  endfacet
  facet normal 0 0 1
    outer loop
      vertex 6.6045 5.575 4
      vertex 3.175 23.925 4
      vertex 0 23.925 4
    endloop
  endfacet
  facet normal 0 0 1
    outer loop
      vertex 6.6045 5.575 4
      vertex 3.175 42.975 4
      vertex 3.175 23.925 4
    endloop
  endfacet
  facet normal 0 0 1
    outer loop
      vertex 3.175 42.975 4
      vertex 6.6045 61.325 4
      vertex 0 42.975 4
    endloop
  endfacet
  facet normal 0 0 1
    outer loop
      vertex 6.6045 5.575 4
      vertex 6.6045 61.325 4
      vertex 3.175 42.975 4
    endloop
  endfacet
  facet normal 1 0 0
    outer loop
      vertex 90.909 0 4
      vertex 90.909 0 0
      vertex 90.909 23.925 0
    endloop
  endfacet
  facet normal 1 0 0
    outer loop
      vertex 90.909 23.925 4
      vertex 90.909 0 4
      vertex 90.909 23.925 0
    endloop
  endfacet
  facet normal 0 1 0
    outer loop
      vertex 90.909 23.925 4
      vertex 90.909 23.925 0
      vertex 87.734 23.925 4
    endloop
  endfacet
  facet normal 0 1 0
    outer loop
      vertex 87.734 23.925 4
      vertex 90.909 23.925 0
      vertex 87.734 23.925 0
    endloop
  endfacet
  facet normal 1 0 0
    outer loop
      vertex 87.734 42.975 0
      vertex 87.734 42.975 4
      vertex 87.734 23.925 4
    endloop
  endfacet
  facet normal 1 0 0
    outer loop
      vertex 87.734 23.925 0
      vertex 87.734 42.975 0
      vertex 87.734 23.925 4
    endloop
  endfacet
  facet normal 0 -1 0
    outer loop
      vertex 90.909 42.975 0
      vertex 90.909 42.975 4
      vertex 87.734 42.975 4
    endloop
  endfacet
  facet normal 0 -1 0
    outer loop
      vertex 87.734 42.975 0
      vertex 90.909 42.975 0
      vertex 87.734 42.975 4
    endloop
  endfacet
  facet normal 1 0 0
    outer loop
      vertex 90.909 42.975 4
      vertex 90.909 42.975 0
      vertex 90.909 66.9 0
    endloop
  endfacet
  facet normal 1 0 0
    outer loop
      vertex 90.909 66.9 4
      vertex 90.909 42.975 4
      vertex 90.909 66.9 0
    endloop
  endfacet
  facet normal 0 1 0
    outer loop
      vertex 0 66.9 0
      vertex 0 66.9 4
      vertex 90.909 66.9 0
    endloop
  endfacet
  facet normal 0 1 0
    outer loop
      vertex 90.909 66.9 0
      vertex 0 66.9 4
      vertex 90.909 66.9 4
    endloop
  endfacet
  facet normal -1 0 0
    outer loop
      vertex 0 42.975 0
      vertex 0 42.975 4
      vertex 0 66.9 0
    endloop
  endfacet
  facet normal -1 0 0
    outer loop
      vertex 0 66.9 0
      vertex 0 42.975 4
      vertex 0 66.9 4
    endloop
  endfacet
  facet normal 0 -1 0
    outer loop
      vertex 3.175 42.975 0
      vertex 3.175 42.975 4
      vertex 0 42.975 4
    endloop
  endfacet
  facet normal 0 -1 0
    outer loop
      vertex 0 42.975 0
      vertex 3.175 42.975 0
      vertex 0 42.975 4
    endloop
  endfacet
  facet normal -1 0 0
    outer loop
      vertex 3.175 42.975 4
      vertex 3.175 42.975 0
      vertex 3.175 23.925 4
    endloop
  endfacet
  facet normal -1 0 0
    outer loop
      vertex 3.175 23.925 4
      vertex 3.175 42.975 0
      vertex 3.175 23.925 0
    endloop
  endfacet
  facet normal 1 0 0
    outer loop
      vertex 6.6045 18.45 0.4
      vertex 6.6045 18.45 0
      vertex 6.6045 48.45 0
    endloop
  endfacet
  facet normal 1 0 0
    outer loop
      vertex 6.6045 63.325 2.2
      vertex 6.6045 18.45 0.4
      vertex 6.6045 48.45 0.4
    endloop
  endfacet
  facet normal 1 0 0
    outer loop
      vertex 6.6045 48.45 0.4
      vertex 6.6045 18.45 0.4
      vertex 6.6045 48.45 0
    endloop
  endfacet
  facet normal 1 0 0
    outer loop
      vertex 6.6045 63.325 2.2
      vertex 6.6045 48.45 0.4
      vertex 6.6045 63.325 0.4
    endloop
  endfacet
  facet normal 1 0 0
    outer loop
      vertex 6.6045 61.325 2.2
      vertex 6.6045 18.45 0.4
      vertex 6.6045 63.325 2.2
    endloop
  endfacet
  facet normal 1 0 0
    outer loop
      vertex 6.6045 61.325 4
      vertex 6.6045 18.45 0.4
      vertex 6.6045 61.325 2.2
    endloop
  endfacet
  facet normal 1 0 0
    outer loop
      vertex 6.6045 5.575 4
      vertex 6.6045 18.45 0.4
      vertex 6.6045 61.325 4
    endloop
  endfacet
  facet normal 1 0 0
    outer loop
      vertex 6.6045 4.075 0.4
      vertex 6.6045 5.575 2.2
      vertex 6.6045 4.075 2.2
    endloop
  endfacet
  facet normal 1 0 0
    outer loop
      vertex 6.6045 5.575 2.2
      vertex 6.6045 18.45 0.4
      vertex 6.6045 5.575 4
    endloop
  endfacet
  facet normal 1 0 0
    outer loop
      vertex 6.6045 4.075 0.4
      vertex 6.6045 18.45 0.4
      vertex 6.6045 5.575 2.2
    endloop
  endfacet
  facet normal 0 -1 0
    outer loop
      vertex 46.6045 48.45 0
      vertex 46.6045 48.45 0.4
      vertex 6.6045 48.45 0.4
    endloop
  endfacet
  facet normal 0 -1 0
    outer loop
      vertex 6.6045 48.45 0
      vertex 46.6045 48.45 0
      vertex 6.6045 48.45 0.4
    endloop
  endfacet
  facet normal -1 0 0
    outer loop
      vertex 46.6045 48.45 0.4
      vertex 46.6045 48.45 0
      vertex 46.6045 18.45 0.4
    endloop
  endfacet
  facet normal -1 0 0
    outer loop
      vertex 46.6045 18.45 0.4
      vertex 46.6045 48.45 0
      vertex 46.6045 18.45 0
    endloop
  endfacet
  facet normal 0 1 0
    outer loop
      vertex 46.6045 18.45 0.4
      vertex 46.6045 18.45 0
      vertex 6.6045 18.45 0.4
    endloop
  endfacet
  facet normal 0 1 0
    outer loop
      vertex 6.6045 18.45 0.4
      vertex 46.6045 18.45 0
      vertex 6.6045 18.45 0
    endloop
  endfacet
  facet normal 0.994522 -0.104528 0
    outer loop
      vertex 56.1275 35.5291 0
      vertex 56.1275 35.5291 0.4
      vertex 55.909 33.45 0.4
    endloop
  endfacet
  facet normal 0.994522 -0.104528 0
    outer loop
      vertex 55.909 33.45 0
      vertex 56.1275 35.5291 0
      vertex 55.909 33.45 0.4
    endloop
  endfacet
  facet normal 0.994522 0.104528 0
    outer loop
      vertex 55.909 33.45 0.4
      vertex 56.1275 31.3709 0.4
      vertex 56.1275 31.3709 0
    endloop
  endfacet
  facet normal 0.994522 0.104528 0
    outer loop
      vertex 55.909 33.45 0
      vertex 55.909 33.45 0.4
      vertex 56.1275 31.3709 0
    endloop
  endfacet
  facet normal 0.951057 -0.309017 0
    outer loop
      vertex 56.7735 37.5174 0
      vertex 56.7735 37.5174 0.4
      vertex 56.1275 35.5291 0.4
    endloop
  endfacet
  facet normal 0.951057 -0.309017 0
    outer loop
      vertex 56.1275 35.5291 0
      vertex 56.7735 37.5174 0
      vertex 56.1275 35.5291 0.4
    endloop
  endfacet
  facet normal 0.866025 -0.5 0
    outer loop
      vertex 57.8188 39.3279 0
      vertex 57.8188 39.3279 0.4
      vertex 56.7735 37.5174 0.4
    endloop
  endfacet
  facet normal 0.866025 -0.5 0
    outer loop
      vertex 56.7735 37.5174 0
      vertex 57.8188 39.3279 0
      vertex 56.7735 37.5174 0.4
    endloop
  endfacet
  facet normal 0.743145 -0.669131 0
    outer loop
      vertex 59.2177 40.8814 0
      vertex 59.2177 40.8814 0.4
      vertex 57.8188 39.3279 0.4
    endloop
  endfacet
  facet normal 0.743145 -0.669131 0
    outer loop
      vertex 57.8188 39.3279 0
      vertex 59.2177 40.8814 0
      vertex 57.8188 39.3279 0.4
    endloop
  endfacet
  facet normal 0.587785 -0.809017 0
    outer loop
      vertex 60.909 42.1103 0
      vertex 60.909 42.1103 0.4
      vertex 59.2177 40.8814 0.4
    endloop
  endfacet
  facet normal 0.587785 -0.809017 0
    outer loop
      vertex 59.2177 40.8814 0
      vertex 60.909 42.1103 0
      vertex 59.2177 40.8814 0.4
    endloop
  endfacet
  facet normal 0.406737 -0.913545 0
    outer loop
      vertex 62.8188 42.9606 0
      vertex 62.8188 42.9606 0.4
      vertex 60.909 42.1103 0.4
    endloop
  endfacet
  facet normal 0.406737 -0.913545 0
    outer loop
      vertex 60.909 42.1103 0
      vertex 62.8188 42.9606 0
      vertex 60.909 42.1103 0.4
    endloop
  endfacet
  facet normal 0.207912 -0.978148 0
    outer loop
      vertex 64.8637 43.3952 0
      vertex 64.8637 43.3952 0.4
      vertex 62.8188 42.9606 0.4
    endloop
  endfacet
  facet normal 0.207912 -0.978148 0
    outer loop
      vertex 62.8188 42.9606 0
      vertex 64.8637 43.3952 0
      vertex 62.8188 42.9606 0.4
    endloop
  endfacet
  facet normal 0 -1 0
    outer loop
      vertex 66.9543 43.3952 0
      vertex 66.9543 43.3952 0.4
      vertex 64.8637 43.3952 0.4
    endloop
  endfacet
  facet normal 0 -1 0
    outer loop
      vertex 64.8637 43.3952 0
      vertex 66.9543 43.3952 0
      vertex 64.8637 43.3952 0.4
    endloop
  endfacet
  facet normal -0.207912 -0.978148 0
    outer loop
      vertex 68.9992 42.9606 0
      vertex 68.9992 42.9606 0.4
      vertex 66.9543 43.3952 0.4
    endloop
  endfacet
  facet normal -0.207912 -0.978148 0
    outer loop
      vertex 66.9543 43.3952 0
      vertex 68.9992 42.9606 0
      vertex 66.9543 43.3952 0.4
    endloop
  endfacet
  facet normal -0.406737 -0.913545 0
    outer loop
      vertex 70.909 42.1103 0
      vertex 70.909 42.1103 0.4
      vertex 68.9992 42.9606 0.4
    endloop
  endfacet
  facet normal -0.406737 -0.913545 0
    outer loop
      vertex 68.9992 42.9606 0
      vertex 70.909 42.1103 0
      vertex 68.9992 42.9606 0.4
    endloop
  endfacet
  facet normal -0.587785 -0.809017 0
    outer loop
      vertex 72.6003 40.8814 0
      vertex 72.6003 40.8814 0.4
      vertex 70.909 42.1103 0.4
    endloop
  endfacet
  facet normal -0.587785 -0.809017 0
    outer loop
      vertex 70.909 42.1103 0
      vertex 72.6003 40.8814 0
      vertex 70.909 42.1103 0.4
    endloop
  endfacet
  facet normal -0.743145 -0.669131 0
    outer loop
      vertex 73.9992 39.3279 0.4
      vertex 72.6003 40.8814 0.4
      vertex 73.9992 39.3279 0
    endloop
  endfacet
  facet normal -0.743145 -0.669131 0
    outer loop
      vertex 73.9992 39.3279 0
      vertex 72.6003 40.8814 0.4
      vertex 72.6003 40.8814 0
    endloop
  endfacet
  facet normal -0.866025 -0.5 0
    outer loop
      vertex 75.0445 37.5174 0.4
      vertex 73.9992 39.3279 0.4
      vertex 75.0445 37.5174 0
    endloop
  endfacet
  facet normal -0.866025 -0.5 0
    outer loop
      vertex 75.0445 37.5174 0
      vertex 73.9992 39.3279 0.4
      vertex 73.9992 39.3279 0
    endloop
  endfacet
  facet normal -0.951057 -0.309017 0
    outer loop
      vertex 75.6905 35.5291 0.4
      vertex 75.0445 37.5174 0.4
      vertex 75.6905 35.5291 0
    endloop
  endfacet
  facet normal -0.951057 -0.309017 0
    outer loop
      vertex 75.6905 35.5291 0
      vertex 75.0445 37.5174 0.4
      vertex 75.0445 37.5174 0
    endloop
  endfacet
  facet normal -0.994522 -0.104528 0
    outer loop
      vertex 75.909 33.45 0.4
      vertex 75.6905 35.5291 0.4
      vertex 75.909 33.45 0
    endloop
  endfacet
  facet normal -0.994522 -0.104528 0
    outer loop
      vertex 75.909 33.45 0
      vertex 75.6905 35.5291 0.4
      vertex 75.6905 35.5291 0
    endloop
  endfacet
  facet normal -0.994522 0.104528 0
    outer loop
      vertex 75.909 33.45 0.4
      vertex 75.909 33.45 0
      vertex 75.6905 31.3709 0.4
    endloop
  endfacet
  facet normal -0.994522 0.104528 0
    outer loop
      vertex 75.6905 31.3709 0.4
      vertex 75.909 33.45 0
      vertex 75.6905 31.3709 0
    endloop
  endfacet
  facet normal -0.951057 0.309017 0
    outer loop
      vertex 75.6905 31.3709 0.4
      vertex 75.6905 31.3709 0
      vertex 75.0445 29.3826 0.4
    endloop
  endfacet
  facet normal -0.951057 0.309017 0
    outer loop
      vertex 75.0445 29.3826 0.4
      vertex 75.6905 31.3709 0
      vertex 75.0445 29.3826 0
    endloop
  endfacet
  facet normal -0.866025 0.5 0
    outer loop
      vertex 75.0445 29.3826 0.4
      vertex 75.0445 29.3826 0
      vertex 73.9992 27.5721 0.4
    endloop
  endfacet
  facet normal -0.866025 0.5 0
    outer loop
      vertex 73.9992 27.5721 0.4
      vertex 75.0445 29.3826 0
      vertex 73.9992 27.5721 0
    endloop
  endfacet
  facet normal -0.743145 0.669131 0
    outer loop
      vertex 73.9992 27.5721 0.4
      vertex 73.9992 27.5721 0
      vertex 72.6003 26.0186 0.4
    endloop
  endfacet
  facet normal -0.743145 0.669131 0
    outer loop
      vertex 72.6003 26.0186 0.4
      vertex 73.9992 27.5721 0
      vertex 72.6003 26.0186 0
    endloop
  endfacet
  facet normal -0.587785 0.809017 0
    outer loop
      vertex 72.6003 26.0186 0.4
      vertex 72.6003 26.0186 0
      vertex 70.909 24.7897 0.4
    endloop
  endfacet
  facet normal -0.587785 0.809017 0
    outer loop
      vertex 70.909 24.7897 0.4
      vertex 72.6003 26.0186 0
      vertex 70.909 24.7897 0
    endloop
  endfacet
  facet normal -0.406737 0.913545 0
    outer loop
      vertex 70.909 24.7897 0.4
      vertex 70.909 24.7897 0
      vertex 68.9992 23.9394 0.4
    endloop
  endfacet
  facet normal -0.406737 0.913545 0
    outer loop
      vertex 68.9992 23.9394 0.4
      vertex 70.909 24.7897 0
      vertex 68.9992 23.9394 0
    endloop
  endfacet
  facet normal -0.207912 0.978148 0
    outer loop
      vertex 68.9992 23.9394 0.4
      vertex 68.9992 23.9394 0
      vertex 66.9543 23.5048 0.4
    endloop
  endfacet
  facet normal -0.207912 0.978148 0
    outer loop
      vertex 66.9543 23.5048 0.4
      vertex 68.9992 23.9394 0
      vertex 66.9543 23.5048 0
    endloop
  endfacet
  facet normal 0 1 0
    outer loop
      vertex 66.9543 23.5048 0.4
      vertex 66.9543 23.5048 0
      vertex 64.8637 23.5048 0.4
    endloop
  endfacet
  facet normal 0 1 0
    outer loop
      vertex 64.8637 23.5048 0.4
      vertex 66.9543 23.5048 0
      vertex 64.8637 23.5048 0
    endloop
  endfacet
  facet normal 0.207912 0.978148 0
    outer loop
      vertex 64.8637 23.5048 0.4
      vertex 64.8637 23.5048 0
      vertex 62.8188 23.9394 0.4
    endloop
  endfacet
  facet normal 0.207912 0.978148 0
    outer loop
      vertex 62.8188 23.9394 0.4
      vertex 64.8637 23.5048 0
      vertex 62.8188 23.9394 0
    endloop
  endfacet
  facet normal 0.406737 0.913545 0
    outer loop
      vertex 62.8188 23.9394 0.4
      vertex 62.8188 23.9394 0
      vertex 60.909 24.7897 0.4
    endloop
  endfacet
  facet normal 0.406737 0.913545 0
    outer loop
      vertex 60.909 24.7897 0.4
      vertex 62.8188 23.9394 0
      vertex 60.909 24.7897 0
    endloop
  endfacet
  facet normal 0.587785 0.809017 0
    outer loop
      vertex 60.909 24.7897 0.4
      vertex 60.909 24.7897 0
      vertex 59.2177 26.0186 0.4
    endloop
  endfacet
  facet normal 0.587785 0.809017 0
    outer loop
      vertex 59.2177 26.0186 0.4
      vertex 60.909 24.7897 0
      vertex 59.2177 26.0186 0
    endloop
  endfacet
  facet normal 0.743145 0.669131 0
    outer loop
      vertex 57.8188 27.5721 0.4
      vertex 59.2177 26.0186 0.4
      vertex 59.2177 26.0186 0
    endloop
  endfacet
  facet normal 0.743145 0.669131 0
    outer loop
      vertex 57.8188 27.5721 0
      vertex 57.8188 27.5721 0.4
      vertex 59.2177 26.0186 0
    endloop
  endfacet
  facet normal 0.866025 0.5 0
    outer loop
      vertex 56.7735 29.3826 0.4
      vertex 57.8188 27.5721 0.4
      vertex 57.8188 27.5721 0
    endloop
  endfacet
  facet normal 0.866025 0.5 0
    outer loop
      vertex 56.7735 29.3826 0
      vertex 56.7735 29.3826 0.4
      vertex 57.8188 27.5721 0
    endloop
  endfacet
  facet normal 0.951057 0.309017 0
    outer loop
      vertex 56.1275 31.3709 0.4
      vertex 56.7735 29.3826 0.4
      vertex 56.7735 29.3826 0
    endloop
  endfacet
  facet normal 0.951057 0.309017 0
    outer loop
      vertex 56.1275 31.3709 0
      vertex 56.1275 31.3709 0.4
      vertex 56.7735 29.3826 0
    endloop
  endfacet
  facet normal 0 1 0
    outer loop
      vertex 8.6045 5.575 4
      vertex 8.6045 5.575 2.2
      vertex 6.6045 5.575 4
    endloop
  endfacet
  facet normal 0 1 0
    outer loop
      vertex 6.6045 5.575 4
      vertex 8.6045 5.575 2.2
      vertex 6.6045 5.575 2.2
    endloop
  endfacet
  facet normal 1 0 0
    outer loop
      vertex 8.6045 5.575 2.2
      vertex 8.6045 5.575 4
      vertex 8.6045 4.075 4
    endloop
  endfacet
  facet normal 1 0 0
    outer loop
      vertex 8.6045 4.075 2.2
      vertex 8.6045 5.575 2.2
      vertex 8.6045 4.075 4
    endloop
  endfacet
  facet normal 0 1 0
    outer loop
      vertex 8.6045 4.075 2.2
      vertex 8.6045 4.075 4
      vertex 10.1045 4.075 4
    endloop
  endfacet
  facet normal 0 1 0
    outer loop
      vertex 8.6045 4.075 2.2
      vertex 10.1045 4.075 4
      vertex 10.1045 4.075 0.4
    endloop
  endfacet
  facet normal 0 1 0
    outer loop
      vertex 8.6045 4.075 2.2
      vertex 10.1045 4.075 0.4
      vertex 6.6045 4.075 2.2
    endloop
  endfacet
  facet normal 0 1 0
    outer loop
      vertex 10.1045 4.075 0.4
      vertex 6.6045 4.075 0.4
      vertex 6.6045 4.075 2.2
    endloop
  endfacet
  facet normal -1 0 0
    outer loop
      vertex 10.1045 5.575 4
      vertex 10.1045 5.575 0.4
      vertex 10.1045 4.075 4
    endloop
  endfacet
  facet normal -1 0 0
    outer loop
      vertex 10.1045 4.075 4
      vertex 10.1045 5.575 0.4
      vertex 10.1045 4.075 0.4
    endloop
  endfacet
  facet normal 0 1 0
    outer loop
      vertex 26.6045 5.575 4
      vertex 26.6045 5.575 0.4
      vertex 10.1045 5.575 4
    endloop
  endfacet
  facet normal 0 1 0
    outer loop
      vertex 10.1045 5.575 4
      vertex 26.6045 5.575 0.4
      vertex 10.1045 5.575 0.4
    endloop
  endfacet
  facet normal 1 0 0
    outer loop
      vertex 26.6045 5.575 0.4
      vertex 26.6045 5.575 4
      vertex 26.6045 4.475 4
    endloop
  endfacet
  facet normal 1 0 0
    outer loop
      vertex 26.6045 4.475 0.4
      vertex 26.6045 5.575 0.4
      vertex 26.6045 4.475 4
    endloop
  endfacet
  facet normal 0 1 0
    outer loop
      vertex 30.1045 4.475 4
      vertex 30.1045 4.475 0.4
      vertex 26.6045 4.475 4
    endloop
  endfacet
  facet normal 0 1 0
    outer loop
      vertex 26.6045 4.475 4
      vertex 30.1045 4.475 0.4
      vertex 26.6045 4.475 0.4
    endloop
  endfacet
  facet normal -1 0 0
    outer loop
      vertex 30.1045 5.575 4
      vertex 30.1045 5.575 0.4
      vertex 30.1045 4.475 4
    endloop
  endfacet
  facet normal -1 0 0
    outer loop
      vertex 30.1045 4.475 4
      vertex 30.1045 5.575 0.4
      vertex 30.1045 4.475 0.4
    endloop
  endfacet
  facet normal 0 1 0
    outer loop
      vertex 61.6045 5.575 4
      vertex 61.6045 5.575 0.4
      vertex 30.1045 5.575 4
    endloop
  endfacet
  facet normal 0 1 0
    outer loop
      vertex 30.1045 5.575 4
      vertex 61.6045 5.575 0.4
      vertex 30.1045 5.575 0.4
    endloop
  endfacet
  facet normal 1 0 0
    outer loop
      vertex 61.6045 5.575 0.4
      vertex 61.6045 5.575 4
      vertex 61.6045 4.475 4
    endloop
  endfacet
  facet normal 1 0 0
    outer loop
      vertex 61.6045 4.475 0.4
      vertex 61.6045 5.575 0.4
      vertex 61.6045 4.475 4
    endloop
  endfacet
  facet normal 0 1 0
    outer loop
      vertex 65.1045 4.475 4
      vertex 65.1045 4.475 0.4
      vertex 61.6045 4.475 4
    endloop
  endfacet
  facet normal 0 1 0
    outer loop
      vertex 61.6045 4.475 4
      vertex 65.1045 4.475 0.4
      vertex 61.6045 4.475 0.4
    endloop
  endfacet
  facet normal -1 0 0
    outer loop
      vertex 65.1045 5.575 4
      vertex 65.1045 5.575 0.4
      vertex 65.1045 4.475 4
    endloop
  endfacet
  facet normal -1 0 0
    outer loop
      vertex 65.1045 4.475 4
      vertex 65.1045 5.575 0.4
      vertex 65.1045 4.475 0.4
    endloop
  endfacet
  facet normal 0 1 0
    outer loop
      vertex 85.8045 5.575 4
      vertex 85.8045 5.575 0.4
      vertex 65.1045 5.575 4
    endloop
  endfacet
  facet normal 0 1 0
    outer loop
      vertex 65.1045 5.575 4
      vertex 85.8045 5.575 0.4
      vertex 65.1045 5.575 0.4
    endloop
  endfacet
  facet normal -1 0 0
    outer loop
      vertex 85.8045 9.075 4
      vertex 85.8045 9.075 0.4
      vertex 85.8045 5.575 4
    endloop
  endfacet
  facet normal -1 0 0
    outer loop
      vertex 85.8045 5.575 4
      vertex 85.8045 9.075 0.4
      vertex 85.8045 5.575 0.4
    endloop
  endfacet
  facet normal 0 -1 0
    outer loop
      vertex 85.8045 9.075 0.4
      vertex 85.8045 9.075 4
      vertex 84.3045 9.075 4
    endloop
  endfacet
  facet normal 0 -1 0
    outer loop
      vertex 84.3045 9.075 0.4
      vertex 85.8045 9.075 0.4
      vertex 84.3045 9.075 4
    endloop
  endfacet
  facet normal -1 0 0
    outer loop
      vertex 84.3045 57.825 4
      vertex 84.3045 57.825 0.4
      vertex 84.3045 9.075 4
    endloop
  endfacet
  facet normal -1 0 0
    outer loop
      vertex 84.3045 9.075 4
      vertex 84.3045 57.825 0.4
      vertex 84.3045 9.075 0.4
    endloop
  endfacet
  facet normal 0 1 0
    outer loop
      vertex 85.8045 57.825 4
      vertex 85.8045 57.825 0.4
      vertex 84.3045 57.825 4
    endloop
  endfacet
  facet normal 0 1 0
    outer loop
      vertex 84.3045 57.825 4
      vertex 85.8045 57.825 0.4
      vertex 84.3045 57.825 0.4
    endloop
  endfacet
  facet normal -1 0 0
    outer loop
      vertex 85.8045 61.325 4
      vertex 85.8045 61.325 0.4
      vertex 85.8045 57.825 4
    endloop
  endfacet
  facet normal -1 0 0
    outer loop
      vertex 85.8045 57.825 4
      vertex 85.8045 61.325 0.4
      vertex 85.8045 57.825 0.4
    endloop
  endfacet
  facet normal 0 -1 0
    outer loop
      vertex 85.8045 61.325 0.4
      vertex 85.8045 61.325 4
      vertex 38.9045 61.325 4
    endloop
  endfacet
  facet normal 0 -1 0
    outer loop
      vertex 38.9045 61.325 0.4
      vertex 85.8045 61.325 0.4
      vertex 38.9045 61.325 4
    endloop
  endfacet
  facet normal -1 0 0
    outer loop
      vertex 38.9045 62.825 4
      vertex 38.9045 62.825 0.4
      vertex 38.9045 61.325 4
    endloop
  endfacet
  facet normal -1 0 0
    outer loop
      vertex 38.9045 61.325 4
      vertex 38.9045 62.825 0.4
      vertex 38.9045 61.325 0.4
    endloop
  endfacet
  facet normal 0 -1 0
    outer loop
      vertex 38.9045 62.825 0.4
      vertex 38.9045 62.825 4
      vertex 35.4045 62.825 4
    endloop
  endfacet
  facet normal 0 -1 0
    outer loop
      vertex 35.4045 62.825 0.4
      vertex 38.9045 62.825 0.4
      vertex 35.4045 62.825 4
    endloop
  endfacet
  facet normal 1 0 0
    outer loop
      vertex 35.4045 62.825 0.4
      vertex 35.4045 62.825 4
      vertex 35.4045 61.325 4
    endloop
  endfacet
  facet normal 1 0 0
    outer loop
      vertex 35.4045 61.325 0.4
      vertex 35.4045 62.825 0.4
      vertex 35.4045 61.325 4
    endloop
  endfacet
  facet normal 0 -1 0
    outer loop
      vertex 35.4045 61.325 0.4
      vertex 35.4045 61.325 4
      vertex 10.1045 61.325 4
    endloop
  endfacet
  facet normal 0 -1 0
    outer loop
      vertex 10.1045 61.325 0.4
      vertex 35.4045 61.325 0.4
      vertex 10.1045 61.325 4
    endloop
  endfacet
  facet normal -1 0 0
    outer loop
      vertex 10.1045 62.825 4
      vertex 10.1045 62.825 0.4
      vertex 10.1045 61.325 4
    endloop
  endfacet
  facet normal -1 0 0
    outer loop
      vertex 10.1045 61.325 4
      vertex 10.1045 62.825 0.4
      vertex 10.1045 61.325 0.4
    endloop
  endfacet
  facet normal 0 -1 0
    outer loop
      vertex 9.6045 62.825 2.2
      vertex 9.6045 62.825 0.4
      vertex 10.1045 62.825 0.4
    endloop
  endfacet
  facet normal 0 -1 0
    outer loop
      vertex 8.6045 62.825 4
      vertex 9.6045 62.825 2.2
      vertex 10.1045 62.825 4
    endloop
  endfacet
  facet normal 0 -1 0
    outer loop
      vertex 10.1045 62.825 4
      vertex 9.6045 62.825 2.2
      vertex 10.1045 62.825 0.4
    endloop
  endfacet
  facet normal 0 -1 0
    outer loop
      vertex 8.6045 62.825 2.2
      vertex 9.6045 62.825 2.2
      vertex 8.6045 62.825 4
    endloop
  endfacet
  facet normal 1 0 0
    outer loop
      vertex 8.6045 62.825 2.2
      vertex 8.6045 62.825 4
      vertex 8.6045 61.325 4
    endloop
  endfacet
  facet normal 1 0 0
    outer loop
      vertex 8.6045 61.325 2.2
      vertex 8.6045 62.825 2.2
      vertex 8.6045 61.325 4
    endloop
  endfacet
  facet normal 0 -1 0
    outer loop
      vertex 8.6045 61.325 2.2
      vertex 8.6045 61.325 4
      vertex 6.6045 61.325 4
    endloop
  endfacet
  facet normal 0 -1 0
    outer loop
      vertex 6.6045 61.325 2.2
      vertex 8.6045 61.325 2.2
      vertex 6.6045 61.325 4
    endloop
  endfacet
  facet normal 0 0 1
    outer loop
      vertex 85.8045 9.075 0.4
      vertex 10.1045 5.575 0.4
      vertex 26.6045 5.575 0.4
    endloop
  endfacet
  facet normal 0 0 1
    outer loop
      vertex 30.1045 5.575 0.4
      vertex 85.8045 9.075 0.4
      vertex 26.6045 5.575 0.4
    endloop
  endfacet
  facet normal 0 0 1
    outer loop
      vertex 26.6045 4.475 0.4
      vertex 30.1045 4.475 0.4
      vertex 26.6045 5.575 0.4
    endloop
  endfacet
  facet normal 0 0 1
    outer loop
      vertex 46.6045 48.45 0.4
      vertex 56.1275 35.5291 0.4
      vertex 56.7735 37.5174 0.4
    endloop
  endfacet
  facet normal 0 0 1
    outer loop
      vertex 30.1045 4.475 0.4
      vertex 30.1045 5.575 0.4
      vertex 26.6045 5.575 0.4
    endloop
  endfacet
  facet normal 0 0 1
    outer loop
      vertex 61.6045 5.575 0.4
      vertex 85.8045 9.075 0.4
      vertex 30.1045 5.575 0.4
    endloop
  endfacet
  facet normal 0 0 1
    outer loop
      vertex 65.1045 5.575 0.4
      vertex 85.8045 9.075 0.4
      vertex 61.6045 5.575 0.4
    endloop
  endfacet
  facet normal 0 0 1
    outer loop
      vertex 61.6045 4.475 0.4
      vertex 65.1045 4.475 0.4
      vertex 61.6045 5.575 0.4
    endloop
  endfacet
  facet normal 0 0 1
    outer loop
      vertex 65.1045 4.475 0.4
      vertex 65.1045 5.575 0.4
      vertex 61.6045 5.575 0.4
    endloop
  endfacet
  facet normal 0 0 1
    outer loop
      vertex 46.6045 18.45 0.4
      vertex 6.6045 18.45 0.4
      vertex 10.1045 5.575 0.4
    endloop
  endfacet
  facet normal 0 0 1
    outer loop
      vertex 85.8045 5.575 0.4
      vertex 85.8045 9.075 0.4
      vertex 65.1045 5.575 0.4
    endloop
  endfacet
  facet normal 0 0 1
    outer loop
      vertex 85.8045 9.075 0.4
      vertex 84.3045 9.075 0.4
      vertex 10.1045 5.575 0.4
    endloop
  endfacet
  facet normal 0 0 1
    outer loop
      vertex 46.6045 48.45 0.4
      vertex 59.2177 40.8814 0.4
      vertex 85.8045 61.325 0.4
    endloop
  endfacet
  facet normal 0 0 1
    outer loop
      vertex 85.8045 57.825 0.4
      vertex 85.8045 61.325 0.4
      vertex 84.3045 57.825 0.4
    endloop
  endfacet
  facet normal 0 0 1
    outer loop
      vertex 46.6045 48.45 0.4
      vertex 56.7735 37.5174 0.4
      vertex 57.8188 39.3279 0.4
    endloop
  endfacet
  facet normal 0 0 1
    outer loop
      vertex 62.8188 42.9606 0.4
      vertex 64.8637 43.3952 0.4
      vertex 84.3045 57.825 0.4
    endloop
  endfacet
  facet normal 0 0 1
    outer loop
      vertex 46.6045 48.45 0.4
      vertex 57.8188 39.3279 0.4
      vertex 59.2177 40.8814 0.4
    endloop
  endfacet
  facet normal 0 0 1
    outer loop
      vertex 38.9045 62.825 0.4
      vertex 35.4045 62.825 0.4
      vertex 35.4045 61.325 0.4
    endloop
  endfacet
  facet normal 0 0 1
    outer loop
      vertex 60.909 42.1103 0.4
      vertex 62.8188 42.9606 0.4
      vertex 85.8045 61.325 0.4
    endloop
  endfacet
  facet normal 0 0 1
    outer loop
      vertex 46.6045 48.45 0.4
      vertex 55.909 33.45 0.4
      vertex 56.1275 35.5291 0.4
    endloop
  endfacet
  facet normal 0 0 1
    outer loop
      vertex 10.1045 62.825 0.4
      vertex 9.6045 62.825 0.4
      vertex 10.1045 61.325 0.4
    endloop
  endfacet
  facet normal 0 0 1
    outer loop
      vertex 9.6045 63.325 0.4
      vertex 6.6045 63.325 0.4
      vertex 9.6045 62.825 0.4
    endloop
  endfacet
  facet normal 0 0 1
    outer loop
      vertex 46.6045 48.45 0.4
      vertex 46.6045 18.45 0.4
      vertex 55.909 33.45 0.4
    endloop
  endfacet
  facet normal 0 0 1
    outer loop
      vertex 85.8045 61.325 0.4
      vertex 38.9045 61.325 0.4
      vertex 46.6045 48.45 0.4
    endloop
  endfacet
  facet normal 0 0 1
    outer loop
      vertex 84.3045 9.075 0.4
      vertex 46.6045 18.45 0.4
      vertex 10.1045 5.575 0.4
    endloop
  endfacet
  facet normal 0 0 1
    outer loop
      vertex 6.6045 18.45 0.4
      vertex 6.6045 4.075 0.4
      vertex 10.1045 4.075 0.4
    endloop
  endfacet
  facet normal 0 0 1
    outer loop
      vertex 10.1045 5.575 0.4
      vertex 6.6045 18.45 0.4
      vertex 10.1045 4.075 0.4
    endloop
  endfacet
  facet normal 0 0 1
    outer loop
      vertex 60.909 42.1103 0.4
      vertex 85.8045 61.325 0.4
      vertex 59.2177 40.8814 0.4
    endloop
  endfacet
  facet normal 0 0 1
    outer loop
      vertex 68.9992 42.9606 0.4
      vertex 70.909 42.1103 0.4
      vertex 84.3045 57.825 0.4
    endloop
  endfacet
  facet normal 0 0 1
    outer loop
      vertex 84.3045 57.825 0.4
      vertex 85.8045 61.325 0.4
      vertex 62.8188 42.9606 0.4
    endloop
  endfacet
  facet normal 0 0 1
    outer loop
      vertex 66.9543 43.3952 0.4
      vertex 68.9992 42.9606 0.4
      vertex 84.3045 57.825 0.4
    endloop
  endfacet
  facet normal 0 0 1
    outer loop
      vertex 64.8637 23.5048 0.4
      vertex 62.8188 23.9394 0.4
      vertex 46.6045 18.45 0.4
    endloop
  endfacet
  facet normal 0 0 1
    outer loop
      vertex 56.7735 29.3826 0.4
      vertex 56.1275 31.3709 0.4
      vertex 46.6045 18.45 0.4
    endloop
  endfacet
  facet normal 0 0 1
    outer loop
      vertex 72.6003 40.8814 0.4
      vertex 84.3045 57.825 0.4
      vertex 70.909 42.1103 0.4
    endloop
  endfacet
  facet normal 0 0 1
    outer loop
      vertex 73.9992 39.3279 0.4
      vertex 84.3045 57.825 0.4
      vertex 72.6003 40.8814 0.4
    endloop
  endfacet
  facet normal 0 0 1
    outer loop
      vertex 75.0445 37.5174 0.4
      vertex 84.3045 57.825 0.4
      vertex 73.9992 39.3279 0.4
    endloop
  endfacet
  facet normal 0 0 1
    outer loop
      vertex 84.3045 9.075 0.4
      vertex 84.3045 57.825 0.4
      vertex 75.0445 37.5174 0.4
    endloop
  endfacet
  facet normal 0 0 1
    outer loop
      vertex 75.909 33.45 0.4
      vertex 75.6905 31.3709 0.4
      vertex 84.3045 9.075 0.4
    endloop
  endfacet
  facet normal 0 0 1
    outer loop
      vertex 84.3045 9.075 0.4
      vertex 75.0445 37.5174 0.4
      vertex 75.6905 35.5291 0.4
    endloop
  endfacet
  facet normal 0 0 1
    outer loop
      vertex 75.6905 31.3709 0.4
      vertex 75.0445 29.3826 0.4
      vertex 84.3045 9.075 0.4
    endloop
  endfacet
  facet normal 0 0 1
    outer loop
      vertex 66.9543 23.5048 0.4
      vertex 64.8637 23.5048 0.4
      vertex 46.6045 18.45 0.4
    endloop
  endfacet
  facet normal 0 0 1
    outer loop
      vertex 57.8188 27.5721 0.4
      vertex 56.7735 29.3826 0.4
      vertex 46.6045 18.45 0.4
    endloop
  endfacet
  facet normal 0 0 1
    outer loop
      vertex 62.8188 23.9394 0.4
      vertex 60.909 24.7897 0.4
      vertex 46.6045 18.45 0.4
    endloop
  endfacet
  facet normal 0 0 1
    outer loop
      vertex 84.3045 9.075 0.4
      vertex 75.0445 29.3826 0.4
      vertex 73.9992 27.5721 0.4
    endloop
  endfacet
  facet normal 0 0 1
    outer loop
      vertex 84.3045 9.075 0.4
      vertex 73.9992 27.5721 0.4
      vertex 72.6003 26.0186 0.4
    endloop
  endfacet
  facet normal 0 0 1
    outer loop
      vertex 84.3045 9.075 0.4
      vertex 72.6003 26.0186 0.4
      vertex 70.909 24.7897 0.4
    endloop
  endfacet
  facet normal 0 0 1
    outer loop
      vertex 84.3045 9.075 0.4
      vertex 68.9992 23.9394 0.4
      vertex 46.6045 18.45 0.4
    endloop
  endfacet
  facet normal 0 0 1
    outer loop
      vertex 84.3045 9.075 0.4
      vertex 70.909 24.7897 0.4
      vertex 68.9992 23.9394 0.4
    endloop
  endfacet
  facet normal 0 0 1
    outer loop
      vertex 68.9992 23.9394 0.4
      vertex 66.9543 23.5048 0.4
      vertex 46.6045 18.45 0.4
    endloop
  endfacet
  facet normal 0 0 1
    outer loop
      vertex 60.909 24.7897 0.4
      vertex 59.2177 26.0186 0.4
      vertex 46.6045 18.45 0.4
    endloop
  endfacet
  facet normal 0 0 1
    outer loop
      vertex 59.2177 26.0186 0.4
      vertex 57.8188 27.5721 0.4
      vertex 46.6045 18.45 0.4
    endloop
  endfacet
  facet normal 0 0 1
    outer loop
      vertex 75.6905 35.5291 0.4
      vertex 75.909 33.45 0.4
      vertex 84.3045 9.075 0.4
    endloop
  endfacet
  facet normal 0 0 1
    outer loop
      vertex 46.6045 18.45 0.4
      vertex 56.1275 31.3709 0.4
      vertex 55.909 33.45 0.4
    endloop
  endfacet
  facet normal 0 0 1
    outer loop
      vertex 64.8637 43.3952 0.4
      vertex 66.9543 43.3952 0.4
      vertex 84.3045 57.825 0.4
    endloop
  endfacet
  facet normal 0 0 1
    outer loop
      vertex 6.6045 48.45 0.4
      vertex 9.6045 62.825 0.4
      vertex 6.6045 63.325 0.4
    endloop
  endfacet
  facet normal 0 0 1
    outer loop
      vertex 6.6045 48.45 0.4
      vertex 10.1045 61.325 0.4
      vertex 9.6045 62.825 0.4
    endloop
  endfacet
  facet normal 0 0 1
    outer loop
      vertex 6.6045 48.45 0.4
      vertex 35.4045 61.325 0.4
      vertex 10.1045 61.325 0.4
    endloop
  endfacet
  facet normal 0 0 1
    outer loop
      vertex 6.6045 48.45 0.4
      vertex 38.9045 62.825 0.4
      vertex 35.4045 61.325 0.4
    endloop
  endfacet
  facet normal 0 0 1
    outer loop
      vertex 6.6045 48.45 0.4
      vertex 38.9045 61.325 0.4
      vertex 38.9045 62.825 0.4
    endloop
  endfacet
  facet normal 0 0 1
    outer loop
      vertex 6.6045 48.45 0.4
      vertex 46.6045 48.45 0.4
      vertex 38.9045 61.325 0.4
    endloop
  endfacet
  facet normal 0 0 -1
    outer loop
      vertex 8.6045 5.575 2.2
      vertex 8.6045 4.075 2.2
      vertex 6.6045 5.575 2.2
    endloop
  endfacet
  facet normal 0 0 -1
    outer loop
      vertex 6.6045 5.575 2.2
      vertex 8.6045 4.075 2.2
      vertex 6.6045 4.075 2.2
    endloop
  endfacet
  facet normal 0 0 -1
    outer loop
      vertex 9.6045 63.325 2.2
      vertex 9.6045 62.825 2.2
      vertex 6.6045 63.325 2.2
    endloop
  endfacet
  facet normal 0 0 -1
    outer loop
      vertex 6.6045 63.325 2.2
      vertex 9.6045 62.825 2.2
      vertex 8.6045 62.825 2.2
    endloop
  endfacet
  facet normal 0 0 -1
    outer loop
      vertex 6.6045 63.325 2.2
      vertex 8.6045 62.825 2.2
      vertex 8.6045 61.325 2.2
    endloop
  endfacet
  facet normal 0 0 -1
    outer loop
      vertex 6.6045 63.325 2.2
      vertex 8.6045 61.325 2.2
      vertex 6.6045 61.325 2.2
    endloop
  endfacet
  facet normal 0 -1 0
    outer loop
      vertex 9.6045 63.325 0.4
      vertex 9.6045 63.325 2.2
      vertex 6.6045 63.325 2.2
    endloop
  endfacet
  facet normal 0 -1 0
    outer loop
      vertex 6.6045 63.325 0.4
      vertex 9.6045 63.325 0.4
      vertex 6.6045 63.325 2.2
    endloop
  endfacet
  facet normal -1 0 0
    outer loop
      vertex 9.6045 63.325 2.2
      vertex 9.6045 63.325 0.4
      vertex 9.6045 62.825 2.2
    endloop
  endfacet
  facet normal -1 0 0
    outer loop
      vertex 9.6045 62.825 2.2
      vertex 9.6045 63.325 0.4
      vertex 9.6045 62.825 0.4
    endloop
  endfacet
endsolid OpenSCAD_Model
