solid OpenSCAD_Model
  facet normal -1 0 0
    outer loop
      vertex 0 0 0
      vertex 0 0 7
      vertex 0 66.048 0
    endloop
  endfacet
  facet normal -1 0 0
    outer loop
      vertex 0 66.048 0
      vertex 0 0 7
      vertex 0 66.048 7
    endloop
  endfacet
  facet normal 0 -1 0
    outer loop
      vertex 0 0 7
      vertex 0 0 0
      vertex 90.909 0 0
    endloop
  endfacet
  facet normal 0 -1 0
    outer loop
      vertex 90.909 0 7
      vertex 0 0 7
      vertex 90.909 0 0
    endloop
  endfacet
  facet normal 0 0 -1
    outer loop
      vertex 57.5 48.024 0
      vertex 90.909 0 0
      vertex 57.5 18.024 0
    endloop
  endfacet
  facet normal 0 0 -1
    outer loop
      vertex 57.5 48.024 0
      vertex 0 66.048 0
      vertex 90.909 66.048 0
    endloop
  endfacet
  facet normal 0 0 -1
    outer loop
      vertex 0 0 0
      vertex 0 66.048 0
      vertex 6.6045 48.024 0
    endloop
  endfacet
  facet normal 0 0 -1
    outer loop
      vertex 0 0 0
      vertex 6.6045 48.024 0
      vertex 6.6045 18.024 0
    endloop
  endfacet
  facet normal 0 0 -1
    outer loop
      vertex 0 0 0
      vertex 6.6045 18.024 0
      vertex 90.909 0 0
    endloop
  endfacet
  facet normal 0 0 -1
    outer loop
      vertex 6.6045 18.024 0
      vertex 57.5 18.024 0
      vertex 90.909 0 0
    endloop
  endfacet
  facet normal 0 0 -1
    outer loop
      vertex 90.909 0 0
      vertex 57.5 48.024 0
      vertex 90.909 66.048 0
    endloop
  endfacet
  facet normal 0 0 -1
    outer loop
      vertex 6.6045 48.024 0
      vertex 0 66.048 0
      vertex 57.5 48.024 0
    endloop
  endfacet
  facet normal 0 1 0
    outer loop
      vertex 0 66.048 0
      vertex 0 66.048 7
      vertex 90.909 66.048 0
    endloop
  endfacet
  facet normal 0 1 0
    outer loop
      vertex 90.909 66.048 0
      vertex 0 66.048 7
      vertex 90.909 66.048 7
    endloop
  endfacet
  facet normal 0 0 1
    outer loop
      vertex 6.6045 5.504 7
      vertex 0 0 7
      vertex 90.909 0 7
    endloop
  endfacet
  facet normal 0 0 1
    outer loop
      vertex 71.012 5.504 7
      vertex 67.597 5.504 7
      vertex 90.909 0 7
    endloop
  endfacet
  facet normal 0 0 1
    outer loop
      vertex 0 66.048 7
      vertex 0 0 7
      vertex 6.6045 5.504 7
    endloop
  endfacet
  facet normal 0 0 1
    outer loop
      vertex 23.312 60.544 7
      vertex 67.597 60.544 7
      vertex 90.909 66.048 7
    endloop
  endfacet
  facet normal 0 0 1
    outer loop
      vertex 0 66.048 7
      vertex 6.6045 5.504 7
      vertex 6.6045 60.544 7
    endloop
  endfacet
  facet normal 0 0 1
    outer loop
      vertex 90.909 66.048 7
      vertex 0 66.048 7
      vertex 19.897 60.544 7
    endloop
  endfacet
  facet normal 0 0 1
    outer loop
      vertex 22.2225 59.6419 7
      vertex 22.7801 59.926 7
      vertex 20.9865 59.6419 7
    endloop
  endfacet
  facet normal 0 0 1
    outer loop
      vertex 20.4289 59.926 7
      vertex 19.897 60.544 7
      vertex 19.9865 60.3684 7
    endloop
  endfacet
  facet normal 0 0 1
    outer loop
      vertex 22.7801 59.926 7
      vertex 19.897 60.544 7
      vertex 20.9865 59.6419 7
    endloop
  endfacet
  facet normal 0 0 1
    outer loop
      vertex 84.3045 5.504 7
      vertex 71.012 5.504 7
      vertex 90.909 0 7
    endloop
  endfacet
  facet normal 0 0 1
    outer loop
      vertex 22.2225 59.6419 7
      vertex 20.9865 59.6419 7
      vertex 21.6045 59.544 7
    endloop
  endfacet
  facet normal 0 0 1
    outer loop
      vertex 69.9225 59.6419 7
      vertex 70.4801 59.926 7
      vertex 69.3045 59.544 7
    endloop
  endfacet
  facet normal 0 0 1
    outer loop
      vertex 23.2225 60.3684 7
      vertex 19.897 60.544 7
      vertex 22.7801 59.926 7
    endloop
  endfacet
  facet normal 0 0 1
    outer loop
      vertex 71.012 60.544 7
      vertex 84.3045 60.544 7
      vertex 90.909 66.048 7
    endloop
  endfacet
  facet normal 0 0 1
    outer loop
      vertex 23.312 60.544 7
      vertex 19.897 60.544 7
      vertex 23.2225 60.3684 7
    endloop
  endfacet
  facet normal 0 0 1
    outer loop
      vertex 90.909 66.048 7
      vertex 19.897 60.544 7
      vertex 23.312 60.544 7
    endloop
  endfacet
  facet normal 0 0 1
    outer loop
      vertex 23.2225 5.67957 7
      vertex 22.7801 6.12203 7
      vertex 19.9865 5.67957 7
    endloop
  endfacet
  facet normal 0 0 1
    outer loop
      vertex 90.909 66.048 7
      vertex 67.597 60.544 7
      vertex 67.6865 60.3684 7
    endloop
  endfacet
  facet normal 0 0 1
    outer loop
      vertex 90.909 66.048 7
      vertex 67.6865 60.3684 7
      vertex 68.1289 59.926 7
    endloop
  endfacet
  facet normal 0 0 1
    outer loop
      vertex 70.9225 60.3684 7
      vertex 68.1289 59.926 7
      vertex 68.6865 59.6419 7
    endloop
  endfacet
  facet normal 0 0 1
    outer loop
      vertex 70.4801 59.926 7
      vertex 68.6865 59.6419 7
      vertex 69.3045 59.544 7
    endloop
  endfacet
  facet normal 0 0 1
    outer loop
      vertex 70.4801 59.926 7
      vertex 70.9225 60.3684 7
      vertex 68.6865 59.6419 7
    endloop
  endfacet
  facet normal 0 0 1
    outer loop
      vertex 71.012 60.544 7
      vertex 68.1289 59.926 7
      vertex 70.9225 60.3684 7
    endloop
  endfacet
  facet normal 0 0 1
    outer loop
      vertex 90.909 66.048 7
      vertex 68.1289 59.926 7
      vertex 71.012 60.544 7
    endloop
  endfacet
  facet normal 0 0 1
    outer loop
      vertex 90.909 66.048 7
      vertex 84.3045 60.544 7
      vertex 90.909 0 7
    endloop
  endfacet
  facet normal 0 0 1
    outer loop
      vertex 20.4289 59.926 7
      vertex 20.9865 59.6419 7
      vertex 19.897 60.544 7
    endloop
  endfacet
  facet normal 0 0 1
    outer loop
      vertex 67.597 5.504 7
      vertex 23.312 5.504 7
      vertex 90.909 0 7
    endloop
  endfacet
  facet normal 0 0 1
    outer loop
      vertex 70.4801 6.12203 7
      vertex 71.012 5.504 7
      vertex 70.9225 5.67957 7
    endloop
  endfacet
  facet normal 0 0 1
    outer loop
      vertex 70.4801 6.12203 7
      vertex 69.9225 6.40611 7
      vertex 71.012 5.504 7
    endloop
  endfacet
  facet normal 0 0 1
    outer loop
      vertex 23.312 5.504 7
      vertex 23.2225 5.67957 7
      vertex 19.897 5.504 7
    endloop
  endfacet
  facet normal 0 0 1
    outer loop
      vertex 69.3045 6.504 7
      vertex 68.6865 6.40611 7
      vertex 69.9225 6.40611 7
    endloop
  endfacet
  facet normal 0 0 1
    outer loop
      vertex 20.9865 6.40611 7
      vertex 20.4289 6.12203 7
      vertex 22.2225 6.40611 7
    endloop
  endfacet
  facet normal 0 0 1
    outer loop
      vertex 69.9225 6.40611 7
      vertex 68.1289 6.12203 7
      vertex 71.012 5.504 7
    endloop
  endfacet
  facet normal 0 0 1
    outer loop
      vertex 68.1289 6.12203 7
      vertex 67.6865 5.67957 7
      vertex 71.012 5.504 7
    endloop
  endfacet
  facet normal 0 0 1
    outer loop
      vertex 67.6865 5.67957 7
      vertex 67.597 5.504 7
      vertex 71.012 5.504 7
    endloop
  endfacet
  facet normal 0 0 1
    outer loop
      vertex 23.312 5.504 7
      vertex 19.897 5.504 7
      vertex 90.909 0 7
    endloop
  endfacet
  facet normal 0 0 1
    outer loop
      vertex 19.897 5.504 7
      vertex 6.6045 5.504 7
      vertex 90.909 0 7
    endloop
  endfacet
  facet normal 0 0 1
    outer loop
      vertex 19.9865 5.67957 7
      vertex 19.897 5.504 7
      vertex 23.2225 5.67957 7
    endloop
  endfacet
  facet normal 0 0 1
    outer loop
      vertex 20.4289 6.12203 7
      vertex 19.9865 5.67957 7
      vertex 22.7801 6.12203 7
    endloop
  endfacet
  facet normal 0 0 1
    outer loop
      vertex 21.6045 6.504 7
      vertex 20.9865 6.40611 7
      vertex 22.2225 6.40611 7
    endloop
  endfacet
  facet normal 0 0 1
    outer loop
      vertex 22.2225 6.40611 7
      vertex 20.4289 6.12203 7
      vertex 22.7801 6.12203 7
    endloop
  endfacet
  facet normal 0 0 1
    outer loop
      vertex 68.6865 6.40611 7
      vertex 68.1289 6.12203 7
      vertex 69.9225 6.40611 7
    endloop
  endfacet
  facet normal 0 0 1
    outer loop
      vertex 6.6045 60.544 7
      vertex 19.897 60.544 7
      vertex 0 66.048 7
    endloop
  endfacet
  facet normal 0 0 1
    outer loop
      vertex 84.3045 60.544 7
      vertex 84.3045 5.504 7
      vertex 90.909 0 7
    endloop
  endfacet
  facet normal 1 0 0
    outer loop
      vertex 90.909 0 7
      vertex 90.909 0 0
      vertex 90.909 66.048 0
    endloop
  endfacet
  facet normal 1 0 0
    outer loop
      vertex 90.909 66.048 7
      vertex 90.909 0 7
      vertex 90.909 66.048 0
    endloop
  endfacet
  facet normal 1 0 0
    outer loop
      vertex 6.6045 48.024 0
      vertex 6.6045 48.024 2.5
      vertex 6.6045 18.024 2.5
    endloop
  endfacet
  facet normal 1 0 0
    outer loop
      vertex 6.6045 18.024 0
      vertex 6.6045 48.024 0
      vertex 6.6045 18.024 2.5
    endloop
  endfacet
  facet normal 0 -1 0
    outer loop
      vertex 57.5 48.024 0
      vertex 57.5 48.024 3.4
      vertex 32.5 48.024 3.4
    endloop
  endfacet
  facet normal 0 -1 0
    outer loop
      vertex 6.6045 48.024 2.5
      vertex 57.5 48.024 0
      vertex 32.5 48.024 2.5
    endloop
  endfacet
  facet normal 0 -1 0
    outer loop
      vertex 32.5 48.024 2.5
      vertex 57.5 48.024 0
      vertex 32.5 48.024 3.4
    endloop
  endfacet
  facet normal 0 -1 0
    outer loop
      vertex 6.6045 48.024 0
      vertex 57.5 48.024 0
      vertex 6.6045 48.024 2.5
    endloop
  endfacet
  facet normal -1 0 0
    outer loop
      vertex 57.5 48.024 3.4
      vertex 57.5 48.024 0
      vertex 57.5 18.024 3.4
    endloop
  endfacet
  facet normal -1 0 0
    outer loop
      vertex 57.5 18.024 3.4
      vertex 57.5 48.024 0
      vertex 57.5 18.024 0
    endloop
  endfacet
  facet normal 0 1 0
    outer loop
      vertex 32.5 18.024 2.5
      vertex 32.5 18.024 3.4
      vertex 57.5 18.024 3.4
    endloop
  endfacet
  facet normal 0 1 0
    outer loop
      vertex 32.5 18.024 2.5
      vertex 57.5 18.024 3.4
      vertex 57.5 18.024 0
    endloop
  endfacet
  facet normal 0 1 0
    outer loop
      vertex 32.5 18.024 2.5
      vertex 57.5 18.024 0
      vertex 6.6045 18.024 2.5
    endloop
  endfacet
  facet normal 0 1 0
    outer loop
      vertex 57.5 18.024 0
      vertex 6.6045 18.024 0
      vertex 6.6045 18.024 2.5
    endloop
  endfacet
  facet normal 1 0 0
    outer loop
      vertex 6.6045 60.544 3.4
      vertex 6.6045 60.544 7
      vertex 6.6045 5.504 7
    endloop
  endfacet
  facet normal 1 0 0
    outer loop
      vertex 6.6045 5.504 3.4
      vertex 6.6045 60.544 3.4
      vertex 6.6045 5.504 7
    endloop
  endfacet
  facet normal 0 1 0
    outer loop
      vertex 19.897 5.504 7
      vertex 19.897 5.504 3.4
      vertex 6.6045 5.504 7
    endloop
  endfacet
  facet normal 0 1 0
    outer loop
      vertex 6.6045 5.504 7
      vertex 19.897 5.504 3.4
      vertex 6.6045 5.504 3.4
    endloop
  endfacet
  facet normal -0.891007 0.45399 0
    outer loop
      vertex 19.897 5.504 3.4
      vertex 19.897 5.504 7
      vertex 19.9865 5.67957 3.4
    endloop
  endfacet
  facet normal -0.891007 0.45399 0
    outer loop
      vertex 19.9865 5.67957 3.4
      vertex 19.897 5.504 7
      vertex 19.9865 5.67957 7
    endloop
  endfacet
  facet normal -0.707107 0.707107 0
    outer loop
      vertex 19.9865 5.67957 3.4
      vertex 19.9865 5.67957 7
      vertex 20.4289 6.12203 3.4
    endloop
  endfacet
  facet normal -0.707107 0.707107 0
    outer loop
      vertex 20.4289 6.12203 3.4
      vertex 19.9865 5.67957 7
      vertex 20.4289 6.12203 7
    endloop
  endfacet
  facet normal -0.45399 0.891007 0
    outer loop
      vertex 20.4289 6.12203 3.4
      vertex 20.4289 6.12203 7
      vertex 20.9865 6.40611 3.4
    endloop
  endfacet
  facet normal -0.45399 0.891007 0
    outer loop
      vertex 20.9865 6.40611 3.4
      vertex 20.4289 6.12203 7
      vertex 20.9865 6.40611 7
    endloop
  endfacet
  facet normal -0.156435 0.987688 0
    outer loop
      vertex 20.9865 6.40611 3.4
      vertex 20.9865 6.40611 7
      vertex 21.6045 6.504 3.4
    endloop
  endfacet
  facet normal -0.156435 0.987688 0
    outer loop
      vertex 21.6045 6.504 3.4
      vertex 20.9865 6.40611 7
      vertex 21.6045 6.504 7
    endloop
  endfacet
  facet normal 0.156435 0.987688 0
    outer loop
      vertex 21.6045 6.504 3.4
      vertex 21.6045 6.504 7
      vertex 22.2225 6.40611 3.4
    endloop
  endfacet
  facet normal 0.156435 0.987688 0
    outer loop
      vertex 22.2225 6.40611 3.4
      vertex 21.6045 6.504 7
      vertex 22.2225 6.40611 7
    endloop
  endfacet
  facet normal 0.45399 0.891007 0
    outer loop
      vertex 22.2225 6.40611 3.4
      vertex 22.2225 6.40611 7
      vertex 22.7801 6.12203 3.4
    endloop
  endfacet
  facet normal 0.45399 0.891007 0
    outer loop
      vertex 22.7801 6.12203 3.4
      vertex 22.2225 6.40611 7
      vertex 22.7801 6.12203 7
    endloop
  endfacet
  facet normal 0.707107 0.707107 0
    outer loop
      vertex 22.7801 6.12203 3.4
      vertex 22.7801 6.12203 7
      vertex 23.2225 5.67957 3.4
    endloop
  endfacet
  facet normal 0.707107 0.707107 0
    outer loop
      vertex 23.2225 5.67957 3.4
      vertex 22.7801 6.12203 7
      vertex 23.2225 5.67957 7
    endloop
  endfacet
  facet normal 0.891007 0.45399 0
    outer loop
      vertex 23.312 5.504 3.4
      vertex 23.2225 5.67957 3.4
      vertex 23.2225 5.67957 7
    endloop
  endfacet
  facet normal 0.891007 0.45399 0
    outer loop
      vertex 23.312 5.504 7
      vertex 23.312 5.504 3.4
      vertex 23.2225 5.67957 7
    endloop
  endfacet
  facet normal 0 1 0
    outer loop
      vertex 67.597 5.504 7
      vertex 67.597 5.504 3.4
      vertex 23.312 5.504 7
    endloop
  endfacet
  facet normal 0 1 0
    outer loop
      vertex 23.312 5.504 7
      vertex 67.597 5.504 3.4
      vertex 23.312 5.504 3.4
    endloop
  endfacet
  facet normal -0.891007 0.45399 0
    outer loop
      vertex 67.597 5.504 3.4
      vertex 67.597 5.504 7
      vertex 67.6865 5.67957 3.4
    endloop
  endfacet
  facet normal -0.891007 0.45399 0
    outer loop
      vertex 67.6865 5.67957 3.4
      vertex 67.597 5.504 7
      vertex 67.6865 5.67957 7
    endloop
  endfacet
  facet normal -0.707107 0.707107 0
    outer loop
      vertex 67.6865 5.67957 3.4
      vertex 67.6865 5.67957 7
      vertex 68.1289 6.12203 3.4
    endloop
  endfacet
  facet normal -0.707107 0.707107 0
    outer loop
      vertex 68.1289 6.12203 3.4
      vertex 67.6865 5.67957 7
      vertex 68.1289 6.12203 7
    endloop
  endfacet
  facet normal -0.45399 0.891007 0
    outer loop
      vertex 68.1289 6.12203 3.4
      vertex 68.1289 6.12203 7
      vertex 68.6865 6.40611 3.4
    endloop
  endfacet
  facet normal -0.45399 0.891007 0
    outer loop
      vertex 68.6865 6.40611 3.4
      vertex 68.1289 6.12203 7
      vertex 68.6865 6.40611 7
    endloop
  endfacet
  facet normal -0.156435 0.987688 0
    outer loop
      vertex 68.6865 6.40611 3.4
      vertex 68.6865 6.40611 7
      vertex 69.3045 6.504 3.4
    endloop
  endfacet
  facet normal -0.156435 0.987688 0
    outer loop
      vertex 69.3045 6.504 3.4
      vertex 68.6865 6.40611 7
      vertex 69.3045 6.504 7
    endloop
  endfacet
  facet normal 0.156435 0.987688 0
    outer loop
      vertex 69.3045 6.504 3.4
      vertex 69.3045 6.504 7
      vertex 69.9225 6.40611 3.4
    endloop
  endfacet
  facet normal 0.156435 0.987688 0
    outer loop
      vertex 69.9225 6.40611 3.4
      vertex 69.3045 6.504 7
      vertex 69.9225 6.40611 7
    endloop
  endfacet
  facet normal 0.45399 0.891007 0
    outer loop
      vertex 69.9225 6.40611 3.4
      vertex 69.9225 6.40611 7
      vertex 70.4801 6.12203 3.4
    endloop
  endfacet
  facet normal 0.45399 0.891007 0
    outer loop
      vertex 70.4801 6.12203 3.4
      vertex 69.9225 6.40611 7
      vertex 70.4801 6.12203 7
    endloop
  endfacet
  facet normal 0.707107 0.707107 0
    outer loop
      vertex 70.4801 6.12203 3.4
      vertex 70.4801 6.12203 7
      vertex 70.9225 5.67957 3.4
    endloop
  endfacet
  facet normal 0.707107 0.707107 0
    outer loop
      vertex 70.9225 5.67957 3.4
      vertex 70.4801 6.12203 7
      vertex 70.9225 5.67957 7
    endloop
  endfacet
  facet normal 0.891007 0.45399 0
    outer loop
      vertex 71.012 5.504 3.4
      vertex 70.9225 5.67957 3.4
      vertex 70.9225 5.67957 7
    endloop
  endfacet
  facet normal 0.891007 0.45399 0
    outer loop
      vertex 71.012 5.504 7
      vertex 71.012 5.504 3.4
      vertex 70.9225 5.67957 7
    endloop
  endfacet
  facet normal 0 1 0
    outer loop
      vertex 84.3045 5.504 7
      vertex 84.3045 5.504 3.4
      vertex 71.012 5.504 7
    endloop
  endfacet
  facet normal 0 1 0
    outer loop
      vertex 71.012 5.504 7
      vertex 84.3045 5.504 3.4
      vertex 71.012 5.504 3.4
    endloop
  endfacet
  facet normal -1 0 0
    outer loop
      vertex 84.3045 60.544 7
      vertex 84.3045 60.544 3.4
      vertex 84.3045 5.504 7
    endloop
  endfacet
  facet normal -1 0 0
    outer loop
      vertex 84.3045 5.504 7
      vertex 84.3045 60.544 3.4
      vertex 84.3045 5.504 3.4
    endloop
  endfacet
  facet normal 0 -1 0
    outer loop
      vertex 84.3045 60.544 3.4
      vertex 84.3045 60.544 7
      vertex 71.012 60.544 7
    endloop
  endfacet
  facet normal 0 -1 0
    outer loop
      vertex 71.012 60.544 3.4
      vertex 84.3045 60.544 3.4
      vertex 71.012 60.544 7
    endloop
  endfacet
  facet normal 0.891007 -0.45399 0
    outer loop
      vertex 70.9225 60.3684 7
      vertex 70.9225 60.3684 3.4
      vertex 71.012 60.544 3.4
    endloop
  endfacet
  facet normal 0.891007 -0.45399 0
    outer loop
      vertex 71.012 60.544 7
      vertex 70.9225 60.3684 7
      vertex 71.012 60.544 3.4
    endloop
  endfacet
  facet normal 0.707107 -0.707107 0
    outer loop
      vertex 70.4801 59.926 7
      vertex 70.4801 59.926 3.4
      vertex 70.9225 60.3684 3.4
    endloop
  endfacet
  facet normal 0.707107 -0.707107 0
    outer loop
      vertex 70.9225 60.3684 7
      vertex 70.4801 59.926 7
      vertex 70.9225 60.3684 3.4
    endloop
  endfacet
  facet normal 0.45399 -0.891007 0
    outer loop
      vertex 69.9225 59.6419 7
      vertex 69.9225 59.6419 3.4
      vertex 70.4801 59.926 3.4
    endloop
  endfacet
  facet normal 0.45399 -0.891007 0
    outer loop
      vertex 70.4801 59.926 7
      vertex 69.9225 59.6419 7
      vertex 70.4801 59.926 3.4
    endloop
  endfacet
  facet normal 0.156435 -0.987688 0
    outer loop
      vertex 69.3045 59.544 7
      vertex 69.3045 59.544 3.4
      vertex 69.9225 59.6419 3.4
    endloop
  endfacet
  facet normal 0.156435 -0.987688 0
    outer loop
      vertex 69.9225 59.6419 7
      vertex 69.3045 59.544 7
      vertex 69.9225 59.6419 3.4
    endloop
  endfacet
  facet normal -0.156435 -0.987688 0
    outer loop
      vertex 68.6865 59.6419 7
      vertex 68.6865 59.6419 3.4
      vertex 69.3045 59.544 3.4
    endloop
  endfacet
  facet normal -0.156435 -0.987688 0
    outer loop
      vertex 69.3045 59.544 7
      vertex 68.6865 59.6419 7
      vertex 69.3045 59.544 3.4
    endloop
  endfacet
  facet normal -0.45399 -0.891007 0
    outer loop
      vertex 68.1289 59.926 7
      vertex 68.1289 59.926 3.4
      vertex 68.6865 59.6419 3.4
    endloop
  endfacet
  facet normal -0.45399 -0.891007 0
    outer loop
      vertex 68.6865 59.6419 7
      vertex 68.1289 59.926 7
      vertex 68.6865 59.6419 3.4
    endloop
  endfacet
  facet normal -0.707107 -0.707107 0
    outer loop
      vertex 67.6865 60.3684 7
      vertex 67.6865 60.3684 3.4
      vertex 68.1289 59.926 3.4
    endloop
  endfacet
  facet normal -0.707107 -0.707107 0
    outer loop
      vertex 68.1289 59.926 7
      vertex 67.6865 60.3684 7
      vertex 68.1289 59.926 3.4
    endloop
  endfacet
  facet normal -0.891007 -0.45399 0
    outer loop
      vertex 67.597 60.544 3.4
      vertex 67.6865 60.3684 3.4
      vertex 67.597 60.544 7
    endloop
  endfacet
  facet normal -0.891007 -0.45399 0
    outer loop
      vertex 67.597 60.544 7
      vertex 67.6865 60.3684 3.4
      vertex 67.6865 60.3684 7
    endloop
  endfacet
  facet normal 0 -1 0
    outer loop
      vertex 67.597 60.544 3.4
      vertex 67.597 60.544 7
      vertex 23.312 60.544 7
    endloop
  endfacet
  facet normal 0 -1 0
    outer loop
      vertex 23.312 60.544 3.4
      vertex 67.597 60.544 3.4
      vertex 23.312 60.544 7
    endloop
  endfacet
  facet normal 0.891007 -0.45399 0
    outer loop
      vertex 23.2225 60.3684 7
      vertex 23.2225 60.3684 3.4
      vertex 23.312 60.544 3.4
    endloop
  endfacet
  facet normal 0.891007 -0.45399 0
    outer loop
      vertex 23.312 60.544 7
      vertex 23.2225 60.3684 7
      vertex 23.312 60.544 3.4
    endloop
  endfacet
  facet normal 0.707107 -0.707107 0
    outer loop
      vertex 22.7801 59.926 7
      vertex 22.7801 59.926 3.4
      vertex 23.2225 60.3684 3.4
    endloop
  endfacet
  facet normal 0.707107 -0.707107 0
    outer loop
      vertex 23.2225 60.3684 7
      vertex 22.7801 59.926 7
      vertex 23.2225 60.3684 3.4
    endloop
  endfacet
  facet normal 0.45399 -0.891007 0
    outer loop
      vertex 22.2225 59.6419 7
      vertex 22.2225 59.6419 3.4
      vertex 22.7801 59.926 3.4
    endloop
  endfacet
  facet normal 0.45399 -0.891007 0
    outer loop
      vertex 22.7801 59.926 7
      vertex 22.2225 59.6419 7
      vertex 22.7801 59.926 3.4
    endloop
  endfacet
  facet normal 0.156435 -0.987688 0
    outer loop
      vertex 21.6045 59.544 7
      vertex 21.6045 59.544 3.4
      vertex 22.2225 59.6419 3.4
    endloop
  endfacet
  facet normal 0.156435 -0.987688 0
    outer loop
      vertex 22.2225 59.6419 7
      vertex 21.6045 59.544 7
      vertex 22.2225 59.6419 3.4
    endloop
  endfacet
  facet normal -0.156435 -0.987688 0
    outer loop
      vertex 20.9865 59.6419 7
      vertex 20.9865 59.6419 3.4
      vertex 21.6045 59.544 3.4
    endloop
  endfacet
  facet normal -0.156435 -0.987688 0
    outer loop
      vertex 21.6045 59.544 7
      vertex 20.9865 59.6419 7
      vertex 21.6045 59.544 3.4
    endloop
  endfacet
  facet normal -0.45399 -0.891007 0
    outer loop
      vertex 20.4289 59.926 7
      vertex 20.4289 59.926 3.4
      vertex 20.9865 59.6419 3.4
    endloop
  endfacet
  facet normal -0.45399 -0.891007 0
    outer loop
      vertex 20.9865 59.6419 7
      vertex 20.4289 59.926 7
      vertex 20.9865 59.6419 3.4
    endloop
  endfacet
  facet normal -0.707107 -0.707107 0
    outer loop
      vertex 19.9865 60.3684 7
      vertex 19.9865 60.3684 3.4
      vertex 20.4289 59.926 3.4
    endloop
  endfacet
  facet normal -0.707107 -0.707107 0
    outer loop
      vertex 20.4289 59.926 7
      vertex 19.9865 60.3684 7
      vertex 20.4289 59.926 3.4
    endloop
  endfacet
  facet normal -0.891007 -0.45399 0
    outer loop
      vertex 19.897 60.544 3.4
      vertex 19.9865 60.3684 3.4
      vertex 19.897 60.544 7
    endloop
  endfacet
  facet normal -0.891007 -0.45399 0
    outer loop
      vertex 19.897 60.544 7
      vertex 19.9865 60.3684 3.4
      vertex 19.9865 60.3684 7
    endloop
  endfacet
  facet normal 0 -1 0
    outer loop
      vertex 19.897 60.544 3.4
      vertex 19.897 60.544 7
      vertex 6.6045 60.544 7
    endloop
  endfacet
  facet normal 0 -1 0
    outer loop
      vertex 6.6045 60.544 3.4
      vertex 19.897 60.544 3.4
      vertex 6.6045 60.544 7
    endloop
  endfacet
  facet normal 0 0 -1
    outer loop
      vertex 32.5 48.024 2.5
      vertex 32.5 18.024 2.5
      vertex 6.6045 48.024 2.5
    endloop
  endfacet
  facet normal 0 0 -1
    outer loop
      vertex 6.6045 48.024 2.5
      vertex 32.5 18.024 2.5
      vertex 6.6045 18.024 2.5
    endloop
  endfacet
  facet normal 1 0 0
    outer loop
      vertex 32.5 48.024 2.5
      vertex 32.5 48.024 3.4
      vertex 32.5 18.024 3.4
    endloop
  endfacet
  facet normal 1 0 0
    outer loop
      vertex 32.5 18.024 2.5
      vertex 32.5 48.024 2.5
      vertex 32.5 18.024 3.4
    endloop
  endfacet
  facet normal 0 0 1
    outer loop
      vertex 32.5 48.024 3.4
      vertex 57.5 48.024 3.4
      vertex 67.6865 60.3684 3.4
    endloop
  endfacet
  facet normal 0 0 1
    outer loop
      vertex 19.897 5.504 3.4
      vertex 19.9865 5.67957 3.4
      vertex 23.312 60.544 3.4
    endloop
  endfacet
  facet normal 0 0 1
    outer loop
      vertex 22.2225 6.40611 3.4
      vertex 67.597 5.504 3.4
      vertex 21.6045 6.504 3.4
    endloop
  endfacet
  facet normal 0 0 1
    outer loop
      vertex 22.7801 6.12203 3.4
      vertex 67.597 5.504 3.4
      vertex 22.2225 6.40611 3.4
    endloop
  endfacet
  facet normal 0 0 1
    outer loop
      vertex 23.2225 5.67957 3.4
      vertex 67.597 5.504 3.4
      vertex 22.7801 6.12203 3.4
    endloop
  endfacet
  facet normal 0 0 1
    outer loop
      vertex 67.6865 5.67957 3.4
      vertex 68.1289 6.12203 3.4
      vertex 21.6045 6.504 3.4
    endloop
  endfacet
  facet normal 0 0 1
    outer loop
      vertex 23.312 5.504 3.4
      vertex 67.597 5.504 3.4
      vertex 23.2225 5.67957 3.4
    endloop
  endfacet
  facet normal 0 0 1
    outer loop
      vertex 67.597 5.504 3.4
      vertex 67.6865 5.67957 3.4
      vertex 21.6045 6.504 3.4
    endloop
  endfacet
  facet normal 0 0 1
    outer loop
      vertex 68.1289 6.12203 3.4
      vertex 68.6865 6.40611 3.4
      vertex 21.6045 6.504 3.4
    endloop
  endfacet
  facet normal 0 0 1
    outer loop
      vertex 68.6865 6.40611 3.4
      vertex 69.3045 6.504 3.4
      vertex 21.6045 6.504 3.4
    endloop
  endfacet
  facet normal 0 0 1
    outer loop
      vertex 69.9225 6.40611 3.4
      vertex 84.3045 5.504 3.4
      vertex 69.3045 6.504 3.4
    endloop
  endfacet
  facet normal 0 0 1
    outer loop
      vertex 70.4801 6.12203 3.4
      vertex 84.3045 5.504 3.4
      vertex 69.9225 6.40611 3.4
    endloop
  endfacet
  facet normal 0 0 1
    outer loop
      vertex 70.9225 5.67957 3.4
      vertex 84.3045 5.504 3.4
      vertex 70.4801 6.12203 3.4
    endloop
  endfacet
  facet normal 0 0 1
    outer loop
      vertex 57.5 48.024 3.4
      vertex 57.5 18.024 3.4
      vertex 84.3045 60.544 3.4
    endloop
  endfacet
  facet normal 0 0 1
    outer loop
      vertex 71.012 5.504 3.4
      vertex 84.3045 5.504 3.4
      vertex 70.9225 5.67957 3.4
    endloop
  endfacet
  facet normal 0 0 1
    outer loop
      vertex 84.3045 5.504 3.4
      vertex 84.3045 60.544 3.4
      vertex 69.3045 6.504 3.4
    endloop
  endfacet
  facet normal 0 0 1
    outer loop
      vertex 57.5 48.024 3.4
      vertex 68.6865 59.6419 3.4
      vertex 68.1289 59.926 3.4
    endloop
  endfacet
  facet normal 0 0 1
    outer loop
      vertex 84.3045 60.544 3.4
      vertex 71.012 60.544 3.4
      vertex 70.9225 60.3684 3.4
    endloop
  endfacet
  facet normal 0 0 1
    outer loop
      vertex 32.5 48.024 3.4
      vertex 67.6865 60.3684 3.4
      vertex 67.597 60.544 3.4
    endloop
  endfacet
  facet normal 0 0 1
    outer loop
      vertex 57.5 48.024 3.4
      vertex 84.3045 60.544 3.4
      vertex 70.4801 59.926 3.4
    endloop
  endfacet
  facet normal 0 0 1
    outer loop
      vertex 70.4801 59.926 3.4
      vertex 84.3045 60.544 3.4
      vertex 70.9225 60.3684 3.4
    endloop
  endfacet
  facet normal 0 0 1
    outer loop
      vertex 57.5 18.024 3.4
      vertex 32.5 18.024 3.4
      vertex 20.9865 6.40611 3.4
    endloop
  endfacet
  facet normal 0 0 1
    outer loop
      vertex 20.9865 6.40611 3.4
      vertex 32.5 18.024 3.4
      vertex 20.4289 6.12203 3.4
    endloop
  endfacet
  facet normal 0 0 1
    outer loop
      vertex 23.2225 60.3684 3.4
      vertex 22.7801 59.926 3.4
      vertex 19.897 5.504 3.4
    endloop
  endfacet
  facet normal 0 0 1
    outer loop
      vertex 32.5 48.024 3.4
      vertex 23.312 60.544 3.4
      vertex 19.9865 5.67957 3.4
    endloop
  endfacet
  facet normal 0 0 1
    outer loop
      vertex 23.312 60.544 3.4
      vertex 23.2225 60.3684 3.4
      vertex 19.897 5.504 3.4
    endloop
  endfacet
  facet normal 0 0 1
    outer loop
      vertex 22.7801 59.926 3.4
      vertex 22.2225 59.6419 3.4
      vertex 19.897 5.504 3.4
    endloop
  endfacet
  facet normal 0 0 1
    outer loop
      vertex 22.2225 59.6419 3.4
      vertex 21.6045 59.544 3.4
      vertex 19.897 5.504 3.4
    endloop
  endfacet
  facet normal 0 0 1
    outer loop
      vertex 21.6045 59.544 3.4
      vertex 20.9865 59.6419 3.4
      vertex 19.897 5.504 3.4
    endloop
  endfacet
  facet normal 0 0 1
    outer loop
      vertex 20.9865 59.6419 3.4
      vertex 20.4289 59.926 3.4
      vertex 19.897 5.504 3.4
    endloop
  endfacet
  facet normal 0 0 1
    outer loop
      vertex 20.4289 59.926 3.4
      vertex 19.9865 60.3684 3.4
      vertex 19.897 5.504 3.4
    endloop
  endfacet
  facet normal 0 0 1
    outer loop
      vertex 19.9865 60.3684 3.4
      vertex 19.897 60.544 3.4
      vertex 19.897 5.504 3.4
    endloop
  endfacet
  facet normal 0 0 1
    outer loop
      vertex 19.897 60.544 3.4
      vertex 6.6045 60.544 3.4
      vertex 19.897 5.504 3.4
    endloop
  endfacet
  facet normal 0 0 1
    outer loop
      vertex 6.6045 60.544 3.4
      vertex 6.6045 5.504 3.4
      vertex 19.897 5.504 3.4
    endloop
  endfacet
  facet normal 0 0 1
    outer loop
      vertex 57.5 18.024 3.4
      vertex 20.9865 6.40611 3.4
      vertex 21.6045 6.504 3.4
    endloop
  endfacet
  facet normal 0 0 1
    outer loop
      vertex 67.597 60.544 3.4
      vertex 23.312 60.544 3.4
      vertex 32.5 48.024 3.4
    endloop
  endfacet
  facet normal 0 0 1
    outer loop
      vertex 68.1289 59.926 3.4
      vertex 67.6865 60.3684 3.4
      vertex 57.5 48.024 3.4
    endloop
  endfacet
  facet normal 0 0 1
    outer loop
      vertex 69.3045 6.504 3.4
      vertex 57.5 18.024 3.4
      vertex 21.6045 6.504 3.4
    endloop
  endfacet
  facet normal 0 0 1
    outer loop
      vertex 69.3045 6.504 3.4
      vertex 84.3045 60.544 3.4
      vertex 57.5 18.024 3.4
    endloop
  endfacet
  facet normal 0 0 1
    outer loop
      vertex 57.5 48.024 3.4
      vertex 69.3045 59.544 3.4
      vertex 68.6865 59.6419 3.4
    endloop
  endfacet
  facet normal 0 0 1
    outer loop
      vertex 57.5 48.024 3.4
      vertex 69.9225 59.6419 3.4
      vertex 69.3045 59.544 3.4
    endloop
  endfacet
  facet normal 0 0 1
    outer loop
      vertex 57.5 48.024 3.4
      vertex 70.4801 59.926 3.4
      vertex 69.9225 59.6419 3.4
    endloop
  endfacet
  facet normal 0 0 1
    outer loop
      vertex 20.4289 6.12203 3.4
      vertex 32.5 48.024 3.4
      vertex 19.9865 5.67957 3.4
    endloop
  endfacet
  facet normal 0 0 1
    outer loop
      vertex 32.5 18.024 3.4
      vertex 32.5 48.024 3.4
      vertex 20.4289 6.12203 3.4
    endloop
  endfacet
endsolid OpenSCAD_Model
