solid OpenSCAD_Model
  facet normal -1 0 0
    outer loop
      vertex -9.525 -3.345 0
      vertex -9.525 -3.345 4.8
      vertex -9.525 70.245 0
    endloop
  endfacet
  facet normal -1 0 0
    outer loop
      vertex -9.525 70.245 0
      vertex -9.525 -3.345 4.8
      vertex -9.525 70.245 4.8
    endloop
  endfacet
  facet normal 0 -1 0
    outer loop
      vertex -9.525 -3.345 4.8
      vertex -9.525 -3.345 0
      vertex 100.434 -3.345 0
    endloop
  endfacet
  facet normal 0 -1 0
    outer loop
      vertex 100.434 -3.345 4.8
      vertex -9.525 -3.345 4.8
      vertex 100.434 -3.345 0
    endloop
  endfacet
  facet normal 0 0 -1
    outer loop
      vertex 90.909 66.9 0
      vertex -9.525 70.245 0
      vertex 100.434 70.245 0
    endloop
  endfacet
  facet normal 0 0 -1
    outer loop
      vertex -9.525 -3.345 0
      vertex -9.525 70.245 0
      vertex -6.35 42.975 0
    endloop
  endfacet
  facet normal 0 0 -1
    outer loop
      vertex -9.525 -3.345 0
      vertex -6.35 42.975 0
      vertex -6.35 23.925 0
    endloop
  endfacet
  facet normal 0 0 -1
    outer loop
      vertex 90.909 0 0
      vertex 100.434 -3.345 0
      vertex 0 0 0
    endloop
  endfacet
  facet normal 0 0 -1
    outer loop
      vertex -9.525 -3.345 0
      vertex -6.35 23.925 0
      vertex 0 0 0
    endloop
  endfacet
  facet normal 0 0 -1
    outer loop
      vertex -9.525 -3.345 0
      vertex 0 0 0
      vertex 100.434 -3.345 0
    endloop
  endfacet
  facet normal 0 0 -1
    outer loop
      vertex 90.909 23.925 0
      vertex 100.434 -3.345 0
      vertex 90.909 0 0
    endloop
  endfacet
  facet normal 0 0 -1
    outer loop
      vertex 90.909 42.975 0
      vertex 100.434 70.245 0
      vertex 97.259 42.975 0
    endloop
  endfacet
  facet normal 0 0 -1
    outer loop
      vertex 100.434 -3.345 0
      vertex 90.909 23.925 0
      vertex 97.259 23.925 0
    endloop
  endfacet
  facet normal 0 0 -1
    outer loop
      vertex 100.434 -3.345 0
      vertex 97.259 23.925 0
      vertex 100.434 70.245 0
    endloop
  endfacet
  facet normal 0 0 -1
    outer loop
      vertex 97.259 23.925 0
      vertex 97.259 42.975 0
      vertex 100.434 70.245 0
    endloop
  endfacet
  facet normal 0 0 -1
    outer loop
      vertex 0 42.975 0
      vertex -9.525 70.245 0
      vertex 0 66.9 0
    endloop
  endfacet
  facet normal 0 0 -1
    outer loop
      vertex 0 66.9 0
      vertex -9.525 70.245 0
      vertex 90.909 66.9 0
    endloop
  endfacet
  facet normal 0 0 -1
    outer loop
      vertex 90.909 42.975 0
      vertex 90.909 66.9 0
      vertex 100.434 70.245 0
    endloop
  endfacet
  facet normal 0 0 -1
    outer loop
      vertex -6.35 42.975 0
      vertex -9.525 70.245 0
      vertex 0 42.975 0
    endloop
  endfacet
  facet normal 0 0 -1
    outer loop
      vertex 0 0 0
      vertex -6.35 23.925 0
      vertex 0 23.925 0
    endloop
  endfacet
  facet normal 0 1 0
    outer loop
      vertex -9.525 70.245 0
      vertex -9.525 70.245 4.8
      vertex 100.434 70.245 0
    endloop
  endfacet
  facet normal 0 1 0
    outer loop
      vertex 100.434 70.245 0
      vertex -9.525 70.245 4.8
      vertex 100.434 70.245 4.8
    endloop
  endfacet
  facet normal 0 0 1
    outer loop
      vertex 14.6045 9.15 4.8
      vertex -9.525 -3.345 4.8
      vertex 100.434 -3.345 4.8
    endloop
  endfacet
  facet normal 0 0 1
    outer loop
      vertex 79.4045 9.15 4.8
      vertex 14.6045 9.15 4.8
      vertex 100.434 -3.345 4.8
    endloop
  endfacet
  facet normal 0 0 1
    outer loop
      vertex -9.525 70.245 4.8
      vertex -9.525 -3.345 4.8
      vertex 14.6045 9.15 4.8
    endloop
  endfacet
  facet normal 0 0 1
    outer loop
      vertex 100.434 70.245 4.8
      vertex -9.525 70.245 4.8
      vertex 14.6045 57.75 4.8
    endloop
  endfacet
  facet normal 0 0 1
    outer loop
      vertex 100.434 70.245 4.8
      vertex 79.4045 57.75 4.8
      vertex 100.434 -3.345 4.8
    endloop
  endfacet
  facet normal 0 0 1
    outer loop
      vertex 100.434 70.245 4.8
      vertex 14.6045 57.75 4.8
      vertex 79.4045 57.75 4.8
    endloop
  endfacet
  facet normal 0 0 1
    outer loop
      vertex 79.4045 57.75 4.8
      vertex 79.4045 9.15 4.8
      vertex 100.434 -3.345 4.8
    endloop
  endfacet
  facet normal 0 0 1
    outer loop
      vertex 14.6045 9.15 4.8
      vertex 14.6045 57.75 4.8
      vertex -9.525 70.245 4.8
    endloop
  endfacet
  facet normal 1 0 0
    outer loop
      vertex 100.434 -3.345 4.8
      vertex 100.434 -3.345 0
      vertex 100.434 70.245 0
    endloop
  endfacet
  facet normal 1 0 0
    outer loop
      vertex 100.434 70.245 4.8
      vertex 100.434 -3.345 4.8
      vertex 100.434 70.245 0
    endloop
  endfacet
  facet normal 1 0 0
    outer loop
      vertex -6.35 42.975 0
      vertex -6.35 42.975 4.175
      vertex -6.35 23.925 4.175
    endloop
  endfacet
  facet normal 1 0 0
    outer loop
      vertex -6.35 23.925 0
      vertex -6.35 42.975 0
      vertex -6.35 23.925 4.175
    endloop
  endfacet
  facet normal 0 -1 0
    outer loop
      vertex 3.175 42.975 4.175
      vertex 0 42.975 4
      vertex 3.175 42.975 4
    endloop
  endfacet
  facet normal 0 -1 0
    outer loop
      vertex -6.35 42.975 4.175
      vertex 0 42.975 4
      vertex 3.175 42.975 4.175
    endloop
  endfacet
  facet normal 0 -1 0
    outer loop
      vertex 0 42.975 0
      vertex 0 42.975 4
      vertex -6.35 42.975 4.175
    endloop
  endfacet
  facet normal 0 -1 0
    outer loop
      vertex -6.35 42.975 0
      vertex 0 42.975 0
      vertex -6.35 42.975 4.175
    endloop
  endfacet
  facet normal 1 0 0
    outer loop
      vertex 0 66.9 0
      vertex 0 66.9 4
      vertex 0 42.975 4
    endloop
  endfacet
  facet normal 1 0 0
    outer loop
      vertex 0 42.975 0
      vertex 0 66.9 0
      vertex 0 42.975 4
    endloop
  endfacet
  facet normal 0 -1 0
    outer loop
      vertex 90.909 66.9 0
      vertex 90.909 66.9 4
      vertex 0 66.9 4
    endloop
  endfacet
  facet normal 0 -1 0
    outer loop
      vertex 0 66.9 0
      vertex 90.909 66.9 0
      vertex 0 66.9 4
    endloop
  endfacet
  facet normal -1 0 0
    outer loop
      vertex 90.909 66.9 4
      vertex 90.909 66.9 0
      vertex 90.909 42.975 4
    endloop
  endfacet
  facet normal -1 0 0
    outer loop
      vertex 90.909 42.975 4
      vertex 90.909 66.9 0
      vertex 90.909 42.975 0
    endloop
  endfacet
  facet normal 0 -1 0
    outer loop
      vertex 90.909 42.975 4
      vertex 90.909 42.975 0
      vertex 97.259 42.975 0
    endloop
  endfacet
  facet normal 0 -1 0
    outer loop
      vertex 87.734 42.975 4.175
      vertex 90.909 42.975 4
      vertex 97.259 42.975 4.175
    endloop
  endfacet
  facet normal 0 -1 0
    outer loop
      vertex 97.259 42.975 4.175
      vertex 90.909 42.975 4
      vertex 97.259 42.975 0
    endloop
  endfacet
  facet normal 0 -1 0
    outer loop
      vertex 87.734 42.975 4
      vertex 90.909 42.975 4
      vertex 87.734 42.975 4.175
    endloop
  endfacet
  facet normal -1 0 0
    outer loop
      vertex 97.259 42.975 4.175
      vertex 97.259 42.975 0
      vertex 97.259 23.925 4.175
    endloop
  endfacet
  facet normal -1 0 0
    outer loop
      vertex 97.259 23.925 4.175
      vertex 97.259 42.975 0
      vertex 97.259 23.925 0
    endloop
  endfacet
  facet normal 0 1 0
    outer loop
      vertex 87.734 23.925 4
      vertex 87.734 23.925 4.175
      vertex 90.909 23.925 4
    endloop
  endfacet
  facet normal 0 1 0
    outer loop
      vertex 97.259 23.925 4.175
      vertex 97.259 23.925 0
      vertex 90.909 23.925 4
    endloop
  endfacet
  facet normal 0 1 0
    outer loop
      vertex 97.259 23.925 4.175
      vertex 90.909 23.925 4
      vertex 87.734 23.925 4.175
    endloop
  endfacet
  facet normal 0 1 0
    outer loop
      vertex 90.909 23.925 4
      vertex 97.259 23.925 0
      vertex 90.909 23.925 0
    endloop
  endfacet
  facet normal -1 0 0
    outer loop
      vertex 90.909 23.925 4
      vertex 90.909 23.925 0
      vertex 90.909 0 4
    endloop
  endfacet
  facet normal -1 0 0
    outer loop
      vertex 90.909 0 4
      vertex 90.909 23.925 0
      vertex 90.909 0 0
    endloop
  endfacet
  facet normal 0 1 0
    outer loop
      vertex 90.909 0 4
      vertex 90.909 0 0
      vertex 0 0 4
    endloop
  endfacet
  facet normal 0 1 0
    outer loop
      vertex 0 0 4
      vertex 90.909 0 0
      vertex 0 0 0
    endloop
  endfacet
  facet normal 1 0 0
    outer loop
      vertex 0 23.925 0
      vertex 0 23.925 4
      vertex 0 0 4
    endloop
  endfacet
  facet normal 1 0 0
    outer loop
      vertex 0 0 0
      vertex 0 23.925 0
      vertex 0 0 4
    endloop
  endfacet
  facet normal 0 1 0
    outer loop
      vertex 3.175 23.925 4.175
      vertex 3.175 23.925 4
      vertex -6.35 23.925 4.175
    endloop
  endfacet
  facet normal 0 1 0
    outer loop
      vertex -6.35 23.925 4.175
      vertex 3.175 23.925 4
      vertex 0 23.925 4
    endloop
  endfacet
  facet normal 0 1 0
    outer loop
      vertex -6.35 23.925 4.175
      vertex 0 23.925 4
      vertex 0 23.925 0
    endloop
  endfacet
  facet normal 0 1 0
    outer loop
      vertex -6.35 23.925 4.175
      vertex 0 23.925 0
      vertex -6.35 23.925 0
    endloop
  endfacet
  facet normal 1 0 0
    outer loop
      vertex 14.6045 57.75 4
      vertex 14.6045 57.75 4.8
      vertex 14.6045 9.15 4.8
    endloop
  endfacet
  facet normal 1 0 0
    outer loop
      vertex 14.6045 9.15 4
      vertex 14.6045 57.75 4
      vertex 14.6045 9.15 4.8
    endloop
  endfacet
  facet normal 0 1 0
    outer loop
      vertex 79.4045 9.15 4.8
      vertex 79.4045 9.15 4
      vertex 14.6045 9.15 4.8
    endloop
  endfacet
  facet normal 0 1 0
    outer loop
      vertex 14.6045 9.15 4.8
      vertex 79.4045 9.15 4
      vertex 14.6045 9.15 4
    endloop
  endfacet
  facet normal -1 0 0
    outer loop
      vertex 79.4045 57.75 4.8
      vertex 79.4045 57.75 4
      vertex 79.4045 9.15 4.8
    endloop
  endfacet
  facet normal -1 0 0
    outer loop
      vertex 79.4045 9.15 4.8
      vertex 79.4045 57.75 4
      vertex 79.4045 9.15 4
    endloop
  endfacet
  facet normal 0 -1 0
    outer loop
      vertex 79.4045 57.75 4
      vertex 79.4045 57.75 4.8
      vertex 14.6045 57.75 4.8
    endloop
  endfacet
  facet normal 0 -1 0
    outer loop
      vertex 14.6045 57.75 4
      vertex 79.4045 57.75 4
      vertex 14.6045 57.75 4.8
    endloop
  endfacet
  facet normal 0 0 -1
    outer loop
      vertex 3.175 42.975 4.175
      vertex 3.175 23.925 4.175
      vertex -6.35 42.975 4.175
    endloop
  endfacet
  facet normal 0 0 -1
    outer loop
      vertex -6.35 42.975 4.175
      vertex 3.175 23.925 4.175
      vertex -6.35 23.925 4.175
    endloop
  endfacet
  facet normal -1 0 0
    outer loop
      vertex 3.175 42.975 4.175
      vertex 3.175 42.975 4
      vertex 3.175 23.925 4.175
    endloop
  endfacet
  facet normal -1 0 0
    outer loop
      vertex 3.175 23.925 4.175
      vertex 3.175 42.975 4
      vertex 3.175 23.925 4
    endloop
  endfacet
  facet normal 0 0 -1
    outer loop
      vertex 0 66.9 4
      vertex 3.175 42.975 4
      vertex 0 42.975 4
    endloop
  endfacet
  facet normal 0 0 -1
    outer loop
      vertex 14.6045 57.75 4
      vertex 3.175 42.975 4
      vertex 0 66.9 4
    endloop
  endfacet
  facet normal 0 0 -1
    outer loop
      vertex 87.734 42.975 4
      vertex 90.909 66.9 4
      vertex 90.909 42.975 4
    endloop
  endfacet
  facet normal 0 0 -1
    outer loop
      vertex 79.4045 57.75 4
      vertex 90.909 66.9 4
      vertex 87.734 42.975 4
    endloop
  endfacet
  facet normal 0 0 -1
    outer loop
      vertex 14.6045 9.15 4
      vertex 3.175 23.925 4
      vertex 3.175 42.975 4
    endloop
  endfacet
  facet normal 0 0 -1
    outer loop
      vertex 14.6045 9.15 4
      vertex 0 23.925 4
      vertex 3.175 23.925 4
    endloop
  endfacet
  facet normal 0 0 -1
    outer loop
      vertex 87.734 23.925 4
      vertex 90.909 23.925 4
      vertex 90.909 0 4
    endloop
  endfacet
  facet normal 0 0 -1
    outer loop
      vertex 14.6045 9.15 4
      vertex 0 0 4
      vertex 0 23.925 4
    endloop
  endfacet
  facet normal 0 0 -1
    outer loop
      vertex 90.909 0 4
      vertex 0 0 4
      vertex 14.6045 9.15 4
    endloop
  endfacet
  facet normal 0 0 -1
    outer loop
      vertex 79.4045 9.15 4
      vertex 90.909 0 4
      vertex 14.6045 9.15 4
    endloop
  endfacet
  facet normal 0 0 -1
    outer loop
      vertex 87.734 23.925 4
      vertex 90.909 0 4
      vertex 79.4045 9.15 4
    endloop
  endfacet
  facet normal 0 0 -1
    outer loop
      vertex 90.909 66.9 4
      vertex 14.6045 57.75 4
      vertex 0 66.9 4
    endloop
  endfacet
  facet normal 0 0 -1
    outer loop
      vertex 14.6045 9.15 4
      vertex 3.175 42.975 4
      vertex 14.6045 57.75 4
    endloop
  endfacet
  facet normal 0 0 -1
    outer loop
      vertex 14.6045 57.75 4
      vertex 90.909 66.9 4
      vertex 79.4045 57.75 4
    endloop
  endfacet
  facet normal 0 0 -1
    outer loop
      vertex 79.4045 57.75 4
      vertex 87.734 42.975 4
      vertex 87.734 23.925 4
    endloop
  endfacet
  facet normal 0 0 -1
    outer loop
      vertex 79.4045 57.75 4
      vertex 87.734 23.925 4
      vertex 79.4045 9.15 4
    endloop
  endfacet
  facet normal 1 0 0
    outer loop
      vertex 87.734 42.975 4
      vertex 87.734 42.975 4.175
      vertex 87.734 23.925 4.175
    endloop
  endfacet
  facet normal 1 0 0
    outer loop
      vertex 87.734 23.925 4
      vertex 87.734 42.975 4
      vertex 87.734 23.925 4.175
    endloop
  endfacet
  facet normal 0 0 -1
    outer loop
      vertex 97.259 42.975 4.175
      vertex 97.259 23.925 4.175
      vertex 87.734 42.975 4.175
    endloop
  endfacet
  facet normal 0 0 -1
    outer loop
      vertex 87.734 42.975 4.175
      vertex 97.259 23.925 4.175
      vertex 87.734 23.925 4.175
    endloop
  endfacet
endsolid OpenSCAD_Model
